<svg width="27" height="24" viewBox="0 0 27 24" fill="none" xmlns="http://www.w3.org/2000/svg">
<path d="M13.411 0C6.39369 0 0.705078 5.37258 0.705078 12C0.705078 18.6274 6.39369 24 13.411 24C20.4282 24 26.1168 18.6274 26.1168 12C26.1092 5.37553 20.4251 0.00717187 13.411 0ZM17.6462 14.587C18.0765 14.961 18.1043 15.5936 17.7083 16C17.3123 16.4063 16.6424 16.4326 16.2122 16.0586C16.1906 16.0399 16.17 16.0203 16.1501 16L13.411 13.414L10.6728 16C10.2522 16.3837 9.58192 16.3726 9.17568 15.9754C8.77942 15.5879 8.77942 14.9735 9.17568 14.586L11.9138 12L9.17568 9.414C8.76944 9.01673 8.78111 8.38369 9.20174 8.00002C9.61205 7.62577 10.2625 7.62577 10.6728 8.00002L13.411 10.586L16.1501 8.00002C16.5461 7.59366 17.216 7.56741 17.6462 7.94142C18.0765 8.31544 18.1043 8.94806 17.7083 9.35442C17.6885 9.37477 17.6678 9.39427 17.6462 9.41302L14.9081 12L17.6462 14.587Z" fill="#E2425C"/>
</svg>
