<svg xmlns="http://www.w3.org/2000/svg" width="128" height="128" fill="none"><g clip-path="url(#a)"><g filter="url(#b)" opacity=".5"><circle cx="63.831" cy="26.514" r="3.309" fill="url(#c)"/></g><path fill="url(#d)" fill-rule="evenodd" d="M63.279 123.209c26.498 0 47.98-21.482 47.98-47.98 0-26.499-21.482-47.98-47.98-47.98-26.5 0-47.98 21.481-47.98 47.98s21.48 47.98 47.98 47.98m0 1.103c27.107 0 49.083-21.975 49.083-49.083S90.386 26.146 63.279 26.146c-27.108 0-49.084 21.975-49.084 49.083s21.976 49.083 49.084 49.083" clip-rule="evenodd"/><g filter="url(#e)"><path fill="#fff" d="m63.829 20.998.473 5.008 4.674.507-4.674.507-.473 5.008-.473-5.008-4.674-.507 4.674-.507z"/></g><path fill="url(#f)" d="m57.752 60.143-1.926-43.608h15.407l-1.926 43.608z"/><path fill="url(#g)" d="M75.772 72.61 114.5 92.746l-7.704 13.343-36.802-23.472z"/><path fill="url(#h)" d="M69.03 83.392 70.954 127H55.548l1.926-43.608z"/><path fill="url(#i)" d="M56.861 82.756 20.06 106.228l-7.704-13.343 38.728-20.136z"/><path fill="url(#j)" d="M75.772 70.993 114.5 50.857l-7.704-13.343-36.802 23.472z"/><path fill="url(#k)" d="M56.861 60.849 20.06 37.377 12.355 50.72l38.728 20.136z"/><path fill="url(#l)" d="M35.592 66.49V55.65H10c0 6.775 4.79 10.84 8.68 10.84z"/><path stroke="url(#m)" stroke-width="2.294" d="M35.592 66.49V55.65H10c0 6.775 4.79 10.84 8.68 10.84z"/><path fill="url(#n)" d="M44.621 76.123V65.284H19.03c0 6.774 4.789 10.839 8.68 10.839z"/><path stroke="url(#o)" stroke-width="2.294" d="M44.621 76.123V65.284H19.03c0 6.774 4.789 10.839 8.68 10.839z"/><path fill="url(#p)" d="M91.973 66.483V55.645h25.591c0 6.774-4.789 10.838-8.68 10.838z"/><path stroke="url(#q)" stroke-width="2.294" d="M91.973 66.483V55.645h25.591c0 6.774-4.789 10.838-8.68 10.838z"/><path fill="url(#r)" d="M82.941 76.117V65.278h25.592c0 6.775-4.789 10.84-8.68 10.84z"/><path stroke="url(#s)" stroke-width="2.294" d="M82.941 76.117V65.278h25.592c0 6.775-4.789 10.84-8.68 10.84z"/><g clip-rule="evenodd" filter="url(#t)"><path fill="#9CB7ED" fill-rule="evenodd" d="M49.084 89.241v23.319l6.663 3.581a1 1 0 0 0 1.474-.881c0-8.385.008-17.779.008-26.019z"/><path stroke="url(#u)" d="M49.084 89.241v23.319l6.663 3.581a1 1 0 0 0 1.474-.881c0-8.385.008-17.779.008-26.019z"/></g><path fill="url(#v)" fill-rule="evenodd" d="M49.758 111.516v-9.151h-.15v9.275l.063.01c.206.035.434.156.621.334s.325.406.36.645l.005.04 6.02 3.083v-10.334h-.148v10.1l-5.737-2.95a1.3 1.3 0 0 0-.397-.691 1.43 1.43 0 0 0-.638-.361" clip-rule="evenodd"/><path fill="#E3EFFB" fill-rule="evenodd" d="M56.52 114.973c.161-.271.17-.656.158-.905l-.149.008c.012.247 0 .592-.137.821a.46.46 0 0 1-.293.227c-.136.035-.325.021-.585-.08l-.054.139c.276.108.498.13.675.086a.61.61 0 0 0 .386-.296" clip-rule="evenodd"/><g clip-rule="evenodd" filter="url(#w)"><path fill="#C6D9FF" fill-rule="evenodd" d="M47.773 112.035V89.241h-9.452v16.323a3 3 0 0 0 1.688 2.699z"/><path stroke="url(#x)" d="M47.773 112.035V89.241h-9.452v16.323a3 3 0 0 0 1.688 2.699z"/></g><path fill="url(#y)" fill-rule="evenodd" d="M39.026 106.339V95.541h-.176v10.944l.073.013c.243.04.513.184.733.394.22.209.384.478.424.761l.007.047 7.104 3.327V99.144h-.175v11.607l-6.77-3.171c-.058-.313-.24-.597-.468-.816a1.7 1.7 0 0 0-.752-.425" clip-rule="evenodd"/><path fill="#F2F9FF" fill-rule="evenodd" d="M47.005 110.109c.19-.32.2-.775.186-1.068l-.176.009c.015.292 0 .698-.16.969a.55.55 0 0 1-.347.268c-.161.041-.384.025-.69-.094l-.064.164c.326.126.588.153.797.101a.73.73 0 0 0 .454-.349" clip-rule="evenodd"/><g clip-rule="evenodd" filter="url(#z)"><path fill="#9CB7ED" fill-rule="evenodd" d="M78.754 89.241v23.319l-6.663 3.581a1 1 0 0 1-1.474-.881c0-8.385-.008-17.779-.008-26.019z"/><path stroke="url(#A)" d="M78.754 89.241v23.319l-6.663 3.581a1 1 0 0 1-1.474-.881c0-8.385-.008-17.779-.008-26.019z"/></g><path fill="url(#B)" fill-rule="evenodd" d="M78.08 111.516v-9.151h.15v9.275l-.063.01a1.25 1.25 0 0 0-.621.334 1.15 1.15 0 0 0-.36.645l-.005.04-6.02 3.083v-10.334h.148v10.1l5.737-2.95c.049-.265.203-.506.397-.691.186-.178.416-.309.637-.361" clip-rule="evenodd"/><path fill="#E3EFFB" fill-rule="evenodd" d="M71.317 114.973c-.16-.271-.17-.656-.157-.905l.149.008c-.013.247 0 .592.136.821a.46.46 0 0 0 .294.227c.136.035.325.021.585-.08l.053.139c-.276.108-.497.13-.674.086a.61.61 0 0 1-.386-.296" clip-rule="evenodd"/><g clip-rule="evenodd" filter="url(#C)"><path fill="#C6D9FF" fill-rule="evenodd" d="M80.063 112.035V89.241h9.452v16.323a3 3 0 0 1-1.689 2.699z"/><path stroke="url(#D)" d="M80.063 112.035V89.241h9.452v16.323a3 3 0 0 1-1.689 2.699z"/></g><path fill="url(#E)" fill-rule="evenodd" d="M88.812 106.339V95.541h.176v10.944l-.073.013c-.243.04-.513.184-.734.394-.22.209-.383.478-.423.761l-.007.047-7.105 3.327V99.144h.176v11.607l6.77-3.171c.058-.313.24-.597.468-.816.22-.209.49-.364.752-.425" clip-rule="evenodd"/><path fill="#F2F9FF" fill-rule="evenodd" d="M80.833 110.109c-.19-.32-.2-.775-.186-1.068l.175.009c-.014.292.001.698.162.969a.55.55 0 0 0 .346.268c.161.041.384.025.69-.094l.064.164c-.326.126-.588.153-.797.101a.73.73 0 0 1-.454-.349" clip-rule="evenodd"/><g filter="url(#F)"><path fill="#6A88C4" d="M54.86 82.417h18.11v36.664l-7.668 4.678a2.88 2.88 0 0 1-3.004-.002l-7.439-4.55z"/><path stroke="url(#G)" stroke-width="2" d="M54.86 82.417h18.11v36.664l-7.668 4.678a2.88 2.88 0 0 1-3.004-.002l-7.439-4.55z"/></g><path fill="url(#H)" fill-rule="evenodd" d="M55.78 105.252h.262v13.182l7.743 4.775 7.874-4.776v-13.181h.263v13.329l-8.138 4.936-8.005-4.937z" clip-rule="evenodd"/><path fill="url(#I)" fill-rule="evenodd" d="M63.894 117.851v4.762h-.228v-4.762z" clip-rule="evenodd"/><path fill="url(#J)" fill-rule="evenodd" d="M63.097 120.923c-.454.524-1.007.64-1.388.577l.037-.225c.304.05.777-.039 1.179-.502.403-.464.742-1.317.742-2.808h.228c0 1.521-.345 2.436-.798 2.958" clip-rule="evenodd"/><path fill="url(#K)" fill-rule="evenodd" d="M64.463 120.923c.454.524 1.008.64 1.389.577l-.038-.225c-.303.05-.777-.039-1.178-.502-.403-.464-.742-1.317-.742-2.808h-.229c0 1.521.346 2.436.798 2.958" clip-rule="evenodd"/><path fill="url(#L)" fill-rule="evenodd" d="m63.733 122.716-2.577-1.443h.57l2.054 1.214 2.053-1.224h.504l-2.51 1.454a.12.12 0 0 1-.094-.001" clip-rule="evenodd"/><g filter="url(#M)"><path fill="url(#N)" d="m55.663 38.015-15.81 8.6a17 17 0 0 0-8.876 14.933v20.346a17 17 0 0 0 8.876 14.933l15.81 8.6a17 17 0 0 0 16.247 0l15.81-8.6a17 17 0 0 0 8.876-14.933V61.548a17 17 0 0 0-8.877-14.933l-15.81-8.6a17 17 0 0 0-16.247 0"/><path fill="url(#O)" d="m55.653 43.773-10.847 5.9a16.94 16.94 0 0 0-8.843 14.878v14.208a16.94 16.94 0 0 0 8.843 14.877l10.847 5.9a16.94 16.94 0 0 0 16.186 0l10.847-5.9A16.94 16.94 0 0 0 91.53 78.76V64.55a16.94 16.94 0 0 0-8.843-14.878l-10.847-5.9a16.94 16.94 0 0 0-16.186 0"/><g filter="url(#P)"><path stroke="url(#Q)" d="m55.653 43.773-10.847 5.9a16.94 16.94 0 0 0-8.843 14.878v14.208a16.94 16.94 0 0 0 8.843 14.877l10.847 5.9a16.94 16.94 0 0 0 16.186 0l10.847-5.9A16.94 16.94 0 0 0 91.53 78.76V64.55a16.94 16.94 0 0 0-8.843-14.878l-10.847-5.9a16.94 16.94 0 0 0-16.186 0Z"/></g><g opacity=".5"><mask id="R" width="52" height="56" x="38" y="44" maskUnits="userSpaceOnUse" style="mask-type:alpha"><path fill="#A6D3DE" d="m56.225 46.176-9.482 5.154a16.11 16.11 0 0 0-8.417 14.154v12.445a16.11 16.11 0 0 0 8.417 14.154l9.482 5.153a16.11 16.11 0 0 0 15.386 0l9.481-5.153a16.11 16.11 0 0 0 8.417-14.154V65.483a16.11 16.11 0 0 0-8.417-14.154l-9.481-5.154a16.11 16.11 0 0 0-15.386 0"/></mask><g mask="url(#R)"><path fill="url(#S)" d="m56.225 46.176-9.482 5.154a16.11 16.11 0 0 0-8.417 14.154v12.445a16.11 16.11 0 0 0 8.417 14.154l9.482 5.153a16.11 16.11 0 0 0 15.386 0l9.481-5.153a16.11 16.11 0 0 0 8.417-14.154V65.483a16.11 16.11 0 0 0-8.417-14.154l-9.481-5.154a16.11 16.11 0 0 0-15.386 0"/><path fill="url(#T)" d="m59.636 102.591-1.017-61.773h10.59l-1.017 61.773z" opacity=".5"/><path fill="url(#U)" d="M59.501 102.043 27.734 49.055l9.171-5.295 30.006 54.005z" opacity=".5"/><path fill="url(#V)" d="M58.62 97.765 88.624 43.76l9.17 5.295-31.766 52.988z" opacity=".5"/><path fill="url(#W)" d="M38.324 68.175h51.183v33.239H38.324z"/><g filter="url(#X)"><path fill="#6052B4" fill-opacity=".01" d="m56.225 46.176-9.482 5.154a16.11 16.11 0 0 0-8.417 14.154v12.445a16.11 16.11 0 0 0 8.417 14.154l9.482 5.153a16.11 16.11 0 0 0 15.386 0l9.481-5.153a16.11 16.11 0 0 0 8.417-14.154V65.483a16.11 16.11 0 0 0-8.417-14.154l-9.481-5.154a16.11 16.11 0 0 0-15.386 0"/></g></g></g></g><g filter="url(#Y)"><path fill="#43628F" d="M61.147 5.527c1.175-2.303 4.465-2.303 5.64 0a3.17 3.17 0 0 0 2.323 1.688c2.553.406 3.57 3.535 1.743 5.365a3.17 3.17 0 0 0-.887 2.73c.403 2.554-2.26 4.488-4.563 3.316a3.17 3.17 0 0 0-2.872 0c-2.304 1.172-4.966-.762-4.563-3.316.157-1-.172-2.014-.888-2.73-1.827-1.83-.81-4.96 1.743-5.365 1-.159 1.863-.786 2.324-1.688"/></g><path fill="url(#Z)" d="M61.147 5.527c1.175-2.303 4.465-2.303 5.64 0a3.17 3.17 0 0 0 2.323 1.688c2.553.406 3.57 3.535 1.743 5.365a3.17 3.17 0 0 0-.887 2.73c.403 2.554-2.26 4.488-4.563 3.316a3.17 3.17 0 0 0-2.872 0c-2.304 1.172-4.966-.762-4.563-3.316.157-1-.172-2.014-.888-2.73-1.827-1.83-.81-4.96 1.743-5.365 1-.159 1.863-.786 2.324-1.688"/><path fill="url(#aa)" d="M63.116 1.666a.954.954 0 0 1 1.7 0l2.482 4.863c.139.272.399.461.7.51l5.392.857a.954.954 0 0 1 .526 1.617l-3.859 3.863a.95.95 0 0 0-.267.823l.85 5.393a.955.955 0 0 1-1.375 1L64.4 18.116a.95.95 0 0 0-.866 0l-4.866 2.476a.955.955 0 0 1-1.376-1l.851-5.393a.95.95 0 0 0-.267-.823l-3.858-3.863a.954.954 0 0 1 .525-1.617l5.392-.858a.96.96 0 0 0 .7-.509z"/><path fill="url(#ab)" d="M63.116 1.666a.954.954 0 0 1 1.7 0l2.482 4.863c.139.272.399.461.7.51l5.392.857a.954.954 0 0 1 .526 1.617l-3.859 3.863a.95.95 0 0 0-.267.823l.85 5.393a.955.955 0 0 1-1.375 1L64.4 18.116a.95.95 0 0 0-.866 0l-4.866 2.476a.955.955 0 0 1-1.376-1l.851-5.393a.95.95 0 0 0-.267-.823l-3.858-3.863a.954.954 0 0 1 .525-1.617l5.392-.858a.96.96 0 0 0 .7-.509z"/><path fill="url(#ac)" fill-rule="evenodd" d="m67.015 6.674-2.482-4.863a.636.636 0 0 0-1.134 0l-2.481 4.863a1.27 1.27 0 0 1-.934.678l-5.392.858a.636.636 0 0 0-.35 1.078L58.1 13.15c.288.288.42.696.357 1.098l-.851 5.393a.636.636 0 0 0 .917.666l4.866-2.476a1.27 1.27 0 0 1 1.154 0l4.866 2.476a.636.636 0 0 0 .917-.666l-.85-5.393c-.064-.402.069-.81.356-1.098l3.859-3.863a.636.636 0 0 0-.35-1.078l-5.393-.858a1.27 1.27 0 0 1-.933-.678m-2.199-5.008a.954.954 0 0 0-1.7 0L60.634 6.53a.96.96 0 0 1-.7.51l-5.392.857a.954.954 0 0 0-.526 1.617l3.859 3.863a.95.95 0 0 1 .267.823l-.85 5.393a.955.955 0 0 0 1.375 1l4.866-2.476a.95.95 0 0 1 .866 0l4.866 2.476a.955.955 0 0 0 1.376-1l-.851-5.393a.95.95 0 0 1 .267-.823l3.859-3.863a.954.954 0 0 0-.526-1.617l-5.392-.858a.96.96 0 0 1-.7-.509z" clip-rule="evenodd"/><path fill="url(#ad)" d="M62.399 8.44c.698-1.208 2.44-1.208 3.139 0 .257.443.69.757 1.19.864 1.364.291 1.903 1.948.97 2.985-.342.382-.507.89-.454 1.4.144 1.387-1.265 2.411-2.54 1.845a1.81 1.81 0 0 0-1.472 0c-1.274.566-2.683-.458-2.539-1.845a1.81 1.81 0 0 0-.455-1.4c-.932-1.037-.393-2.694.97-2.985A1.81 1.81 0 0 0 62.4 8.44"/><path fill="url(#ae)" d="M70.024 10.18c-5.758 5.44-10.9 3.034-12.751 1.15-2.817-4.185 3.363-.837 8.84-2.301 4.38-1.172 4.433.279 3.911 1.15"/><path fill="#93D6F6" fill-rule="evenodd" d="M63.315 2.749c.118.06.165.203.106.32l-.675 1.334a.239.239 0 1 1-.426-.215l.675-1.334a.24.24 0 0 1 .32-.105" clip-rule="evenodd"/><circle cx="55.057" cy="8.511" r=".239" fill="#93D6F6"/><circle cx="62.215" cy="4.852" r=".239" fill="#93D6F6"/><path fill="url(#af)" fill-opacity=".6" d="M61.688 7.316c-1.81 2.563-1.163 3.96-.614 4.337 1.67.753 4.712-3.693 4.918-4.87.205-1.176-2.042-2.672-4.304.533"/><g filter="url(#ag)"><g filter="url(#ah)"><path fill="#43628F" d="M99.643 17.27c2.38-1.01 4.901 1.106 4.321 3.625a3.17 3.17 0 0 0 .695 2.787c1.695 1.952.462 5.003-2.113 5.23a3.17 3.17 0 0 0-2.436 1.521c-1.332 2.215-4.615 1.986-5.626-.393a3.17 3.17 0 0 0-2.2-1.846c-2.519-.583-3.315-3.776-1.365-5.473a3.17 3.17 0 0 0 1.076-2.663c-.224-2.575 2.567-4.319 4.783-2.989.868.521 1.933.596 2.865.2"/></g><path fill="url(#ai)" d="M99.643 17.27c2.38-1.01 4.901 1.106 4.321 3.625a3.17 3.17 0 0 0 .695 2.787c1.695 1.952.462 5.003-2.113 5.23a3.17 3.17 0 0 0-2.436 1.521c-1.332 2.215-4.615 1.986-5.626-.393a3.17 3.17 0 0 0-2.2-1.846c-2.519-.583-3.315-3.776-1.365-5.473a3.17 3.17 0 0 0 1.076-2.663c-.224-2.575 2.567-4.319 4.783-2.989.868.521 1.933.596 2.865.2"/><path fill="url(#aj)" d="M103.634 15.58a.954.954 0 0 1 1.302 1.092l-1.225 5.32c-.068.298.01.61.21.84l3.579 4.124a.954.954 0 0 1-.637 1.576l-5.439.48a.96.96 0 0 0-.734.458l-2.814 4.678a.955.955 0 0 1-1.697-.119l-2.136-5.024a.95.95 0 0 0-.663-.556l-5.32-1.232a.955.955 0 0 1-.41-1.65l4.118-3.584c.23-.2.35-.499.324-.803l-.472-5.439a.954.954 0 0 1 1.441-.901l4.682 2.81c.262.156.583.179.864.06z"/><path fill="url(#ak)" d="M103.634 15.58a.954.954 0 0 1 1.302 1.092l-1.225 5.32c-.068.298.01.61.21.84l3.579 4.124a.954.954 0 0 1-.637 1.576l-5.439.48a.96.96 0 0 0-.734.458l-2.814 4.678a.955.955 0 0 1-1.697-.119l-2.136-5.024a.95.95 0 0 0-.663-.556l-5.32-1.232a.955.955 0 0 1-.41-1.65l4.118-3.584c.23-.2.35-.499.324-.803l-.472-5.439a.954.954 0 0 1 1.441-.901l4.682 2.81c.262.156.583.179.864.06z"/><path fill="url(#al)" fill-rule="evenodd" d="m103.401 21.922 1.225-5.321a.636.636 0 0 0-.868-.729l-5.027 2.13a1.27 1.27 0 0 1-1.152-.08l-4.681-2.81a.636.636 0 0 0-.962.601l.473 5.44c.035.405-.125.803-.432 1.07l-4.119 3.584a.636.636 0 0 0 .274 1.1l5.32 1.232c.396.091.725.367.884.742l2.136 5.024a.636.636 0 0 0 1.13.08l2.816-4.68a1.27 1.27 0 0 1 .979-.61l5.438-.48a.636.636 0 0 0 .425-1.05l-3.58-4.124a1.28 1.28 0 0 1-.279-1.12m1.535-5.25a.954.954 0 0 0-1.302-1.093l-5.027 2.13a.96.96 0 0 1-.864-.06l-4.681-2.809a.954.954 0 0 0-1.442.901l.472 5.44a.95.95 0 0 1-.324.802l-4.119 3.584a.955.955 0 0 0 .412 1.65l5.319 1.232a.95.95 0 0 1 .663.556l2.136 5.025a.955.955 0 0 0 1.697.118l2.814-4.678a.96.96 0 0 1 .734-.459l5.439-.479a.954.954 0 0 0 .637-1.576l-3.579-4.123a.96.96 0 0 1-.21-.84z" clip-rule="evenodd"/><path fill="url(#am)" d="M98.728 20.305c1.311-.476 2.646.644 2.405 2.017a1.81 1.81 0 0 0 .356 1.428c.857 1.1.205 2.715-1.176 2.91a1.81 1.81 0 0 0-1.248.78c-.78 1.156-2.519 1.034-3.131-.218a1.81 1.81 0 0 0-1.128-.946c-1.34-.386-1.761-2.076-.76-3.046.37-.356.57-.852.552-1.365-.047-1.393 1.43-2.316 2.662-1.663.453.24.986.278 1.468.103"/><path fill="url(#an)" d="M103.452 26.541c-7.908.467-10.3-4.682-10.508-7.315.533-5.017 3.115 1.521 8.251 3.919 4.11 1.918 3.217 3.063 2.257 3.396"/><path fill="#93D6F6" fill-rule="evenodd" d="M103.09 16.535a.24.24 0 0 1-.126.313l-1.374.588a.239.239 0 1 1-.187-.439l1.374-.587a.24.24 0 0 1 .313.125" clip-rule="evenodd"/><circle cx="93.059" cy="15.642" r=".239" fill="#93D6F6" transform="rotate(40 93.059 15.642)"/><circle cx="100.895" cy="17.441" r=".239" fill="#93D6F6" transform="rotate(40 100.895 17.44)"/><path fill="url(#ao)" fill-opacity=".6" d="M98.906 18.987c-3.035.8-3.437 2.286-3.258 2.928.794 1.65 5.982.2 6.896-.57.914-.768.155-3.359-3.638-2.358"/></g><g filter="url(#ap)"><path fill="#43628F" d="M23.618 20.927c-.58-2.52 1.94-4.635 4.32-3.626.933.395 1.997.32 2.865-.2 2.217-1.33 5.007.413 4.784 2.989a3.17 3.17 0 0 0 1.075 2.662c1.95 1.698 1.154 4.89-1.364 5.473a3.17 3.17 0 0 0-2.2 1.846c-1.012 2.38-4.294 2.609-5.627.394a3.17 3.17 0 0 0-2.435-1.522c-2.576-.227-3.808-3.278-2.113-5.23.664-.764.922-1.8.695-2.786"/></g><path fill="url(#aq)" d="M23.618 20.927c-.58-2.52 1.94-4.635 4.32-3.626.933.395 1.997.32 2.865-.2 2.217-1.33 5.007.413 4.784 2.989a3.17 3.17 0 0 0 1.075 2.662c1.95 1.698 1.154 4.89-1.364 5.473a3.17 3.17 0 0 0-2.2 1.846c-1.012 2.38-4.294 2.609-5.627.394a3.17 3.17 0 0 0-2.435-1.522c-2.576-.227-3.808-3.278-2.113-5.23.664-.764.922-1.8.695-2.786"/><path fill="url(#ar)" d="M22.645 16.703a.955.955 0 0 1 1.302-1.093l5.028 2.13c.28.12.601.097.863-.06l4.682-2.81a.954.954 0 0 1 1.442.902l-.473 5.439a.95.95 0 0 0 .324.803l4.119 3.584a.955.955 0 0 1-.412 1.65l-5.319 1.231a.96.96 0 0 0-.663.556l-2.136 5.025a.954.954 0 0 1-1.696.119L26.89 29.5a.95.95 0 0 0-.734-.458l-5.44-.48a.955.955 0 0 1-.636-1.576l3.58-4.123c.2-.23.277-.542.209-.84z"/><path fill="url(#as)" d="M22.645 16.703a.955.955 0 0 1 1.302-1.093l5.028 2.13c.28.12.601.097.863-.06l4.682-2.81a.954.954 0 0 1 1.442.902l-.473 5.439a.95.95 0 0 0 .324.803l4.119 3.584a.955.955 0 0 1-.412 1.65l-5.319 1.231a.96.96 0 0 0-.663.556l-2.136 5.025a.954.954 0 0 1-1.696.119L26.89 29.5a.95.95 0 0 0-.734-.458l-5.44-.48a.955.955 0 0 1-.636-1.576l3.58-4.123c.2-.23.277-.542.209-.84z"/><path fill="url(#at)" fill-rule="evenodd" d="m28.85 18.033-5.027-2.13a.636.636 0 0 0-.868.728l1.225 5.321c.091.396-.013.813-.28 1.12l-3.579 4.123a.636.636 0 0 0 .425 1.05l5.439.48c.405.035.769.263.978.611l2.815 4.679c.268.445.928.399 1.131-.08l2.136-5.024c.16-.374.488-.65.885-.742l5.319-1.231a.636.636 0 0 0 .274-1.1l-4.119-3.585a1.27 1.27 0 0 1-.432-1.07l.473-5.439a.636.636 0 0 0-.962-.6l-4.681 2.809c-.35.209-.777.239-1.152.08m-4.903-2.423a.955.955 0 0 0-1.302 1.093l1.225 5.32a.96.96 0 0 1-.21.84l-3.58 4.123a.955.955 0 0 0 .638 1.577l5.439.479a.95.95 0 0 1 .734.458l2.815 4.679a.954.954 0 0 0 1.696-.119l2.136-5.025a.96.96 0 0 1 .663-.556l5.32-1.231a.955.955 0 0 0 .41-1.65l-4.118-3.584a.95.95 0 0 1-.324-.803l.473-5.44a.954.954 0 0 0-1.442-.9l-4.682 2.809a.95.95 0 0 1-.864.06z" clip-rule="evenodd"/><path fill="url(#au)" d="M26.446 22.353c-.24-1.373 1.094-2.493 2.404-2.018a1.81 1.81 0 0 0 1.469-.102c1.231-.654 2.709.27 2.662 1.663a1.81 1.81 0 0 0 .55 1.365c1.003.97.581 2.66-.758 3.045a1.81 1.81 0 0 0-1.128.946c-.612 1.253-2.35 1.375-3.131.22a1.81 1.81 0 0 0-1.248-.78c-1.38-.196-2.033-1.811-1.176-2.91.315-.405.445-.924.356-1.429"/><path fill="url(#av)" d="M33.41 18.784c-.913 7.87-6.4 9.331-9.029 9.079-4.848-1.396 2.04-2.804 5.293-7.446 2.602-3.714 3.575-2.636 3.736-1.633"/><path fill="#93D6F6" fill-rule="evenodd" d="M23.493 17.406c.128-.03.256.05.287.178l.34 1.455a.239.239 0 1 1-.465.109l-.34-1.455a.24.24 0 0 1 .178-.287" clip-rule="evenodd"/><circle cx="20.871" cy="27.126" r=".239" fill="#93D6F6" transform="rotate(-40 20.871 27.126)"/><circle cx="24.004" cy="19.722" r=".239" fill="#93D6F6" transform="rotate(-40 24.004 19.722)"/><path fill="url(#aw)" fill-opacity=".6" d="M25.18 21.948c.26 3.128 1.654 3.781 2.317 3.717 1.764-.496 1.236-5.857.637-6.89-.598-1.034-3.281-.736-2.954 3.173"/></g><defs><linearGradient id="d" x1="63.462" x2="63.462" y1="26.697" y2="105.377" gradientUnits="userSpaceOnUse"><stop stop-color="#DEE7FF"/><stop offset=".072" stop-color="#CDF" stop-opacity=".33"/><stop offset="1" stop-color="#98C6F0" stop-opacity="0"/></linearGradient><linearGradient id="f" x1="63.53" x2="63.53" y1="16.535" y2="60.143" gradientUnits="userSpaceOnUse"><stop stop-color="#ACF" stop-opacity="0"/><stop offset="1" stop-color="#ACF" stop-opacity=".3"/></linearGradient><linearGradient id="g" x1="110.648" x2="72.883" y1="99.418" y2="77.614" gradientUnits="userSpaceOnUse"><stop stop-color="#ACF" stop-opacity="0"/><stop offset="1" stop-color="#ACF" stop-opacity=".3"/></linearGradient><linearGradient id="h" x1="63.252" x2="63.252" y1="127" y2="83.392" gradientUnits="userSpaceOnUse"><stop stop-color="#ACF" stop-opacity="0"/><stop offset="1" stop-color="#ACF" stop-opacity=".3"/></linearGradient><linearGradient id="i" x1="16.207" x2="53.972" y1="99.556" y2="77.752" gradientUnits="userSpaceOnUse"><stop stop-color="#ACF" stop-opacity="0"/><stop offset="1" stop-color="#ACF" stop-opacity=".3"/></linearGradient><linearGradient id="j" x1="110.648" x2="72.883" y1="44.186" y2="65.99" gradientUnits="userSpaceOnUse"><stop stop-color="#ACF" stop-opacity="0"/><stop offset="1" stop-color="#ACF" stop-opacity=".3"/></linearGradient><linearGradient id="k" x1="16.207" x2="53.972" y1="44.048" y2="65.852" gradientUnits="userSpaceOnUse"><stop stop-color="#ACF" stop-opacity="0"/><stop offset="1" stop-color="#ACF" stop-opacity=".3"/></linearGradient><linearGradient id="l" x1="25.656" x2="16.474" y1="66.489" y2="57.306" gradientUnits="userSpaceOnUse"><stop stop-color="#C3C5D1"/><stop offset=".875" stop-color="#F9F9F9"/></linearGradient><linearGradient id="m" x1="11.506" x2="20.237" y1="55.651" y2="66.489" gradientUnits="userSpaceOnUse"><stop stop-color="#F9F9F9"/><stop offset=".379" stop-color="#F9F9F9"/><stop offset=".481" stop-color="#DFDFE6"/><stop offset=".729" stop-color="#B8BAC6"/></linearGradient><linearGradient id="n" x1="31.976" x2="22.793" y1="74.768" y2="65.284" gradientUnits="userSpaceOnUse"><stop stop-color="#C3C5D1"/><stop offset=".875" stop-color="#F9F9F9"/></linearGradient><linearGradient id="o" x1="20.384" x2="25.051" y1="65.284" y2="74.768" gradientUnits="userSpaceOnUse"><stop stop-color="#F4F4F5"/><stop offset=".306" stop-color="#F4F4F5"/><stop offset=".462" stop-color="#E8E9EC"/><stop offset=".682" stop-color="#DFDFE6"/><stop offset="1" stop-color="#B8BAC6"/></linearGradient><linearGradient id="p" x1="101.908" x2="111.091" y1="66.483" y2="57.301" gradientUnits="userSpaceOnUse"><stop stop-color="#C3C5D1"/><stop offset=".875" stop-color="#F9F9F9"/></linearGradient><linearGradient id="q" x1="116.059" x2="107.328" y1="55.645" y2="66.483" gradientUnits="userSpaceOnUse"><stop stop-color="#F9F9F9"/><stop offset=".379" stop-color="#F9F9F9"/><stop offset=".481" stop-color="#DFDFE6"/><stop offset=".729" stop-color="#B8BAC6"/></linearGradient><linearGradient id="r" x1="95.587" x2="104.769" y1="74.762" y2="65.278" gradientUnits="userSpaceOnUse"><stop stop-color="#C3C5D1"/><stop offset=".875" stop-color="#F9F9F9"/></linearGradient><linearGradient id="s" x1="107.178" x2="102.511" y1="65.278" y2="74.762" gradientUnits="userSpaceOnUse"><stop stop-color="#F4F4F5"/><stop offset=".306" stop-color="#F4F4F5"/><stop offset=".462" stop-color="#E8E9EC"/><stop offset=".682" stop-color="#DFDFE6"/><stop offset="1" stop-color="#B8BAC6"/></linearGradient><linearGradient id="u" x1="57.228" x2="48.646" y1="107.886" y2="109.214" gradientUnits="userSpaceOnUse"><stop stop-color="#91B1E3"/><stop offset=".209" stop-color="#F0F6FF"/><stop offset=".515" stop-color="#A4BFE9"/><stop offset=".728" stop-color="#8BADE0"/><stop offset=".972" stop-color="#D0DEF3"/></linearGradient><linearGradient id="v" x1="49.942" x2="54.197" y1="109.928" y2="108.66" gradientUnits="userSpaceOnUse"><stop stop-color="#FAFCFF"/><stop offset=".31" stop-color="#D7E6FC"/><stop offset=".524" stop-color="#C1D8F4"/><stop offset=".772" stop-color="#BBD6FF"/><stop offset="1" stop-color="#fff"/></linearGradient><linearGradient id="x" x1="38.058" x2="48.192" y1="102.365" y2="113.719" gradientUnits="userSpaceOnUse"><stop stop-color="#91B1E3"/><stop offset=".209" stop-color="#F0F6FF"/><stop offset=".648" stop-color="#A4BFE9"/><stop offset=".78" stop-color="#8BADE0"/><stop offset=".972" stop-color="#93B3E4"/></linearGradient><linearGradient id="y" x1="39.243" x2="44.264" y1="104.465" y2="102.969" gradientUnits="userSpaceOnUse"><stop stop-color="#FAFCFF"/><stop offset=".31" stop-color="#D7E6FC"/><stop offset=".524" stop-color="#C1D8F4"/><stop offset=".772" stop-color="#BBD6FF"/><stop offset="1" stop-color="#fff"/></linearGradient><linearGradient id="A" x1="70.609" x2="79.192" y1="107.886" y2="109.214" gradientUnits="userSpaceOnUse"><stop stop-color="#91B1E3"/><stop offset=".209" stop-color="#F0F6FF"/><stop offset=".515" stop-color="#A4BFE9"/><stop offset=".728" stop-color="#8BADE0"/><stop offset=".972" stop-color="#D0DEF3"/></linearGradient><linearGradient id="B" x1="77.896" x2="73.641" y1="109.928" y2="108.66" gradientUnits="userSpaceOnUse"><stop stop-color="#FAFCFF"/><stop offset=".31" stop-color="#D7E6FC"/><stop offset=".524" stop-color="#C1D8F4"/><stop offset=".772" stop-color="#BBD6FF"/><stop offset="1" stop-color="#fff"/></linearGradient><linearGradient id="D" x1="89.778" x2="79.644" y1="102.365" y2="113.719" gradientUnits="userSpaceOnUse"><stop stop-color="#91B1E3"/><stop offset=".209" stop-color="#F0F6FF"/><stop offset=".648" stop-color="#A4BFE9"/><stop offset=".78" stop-color="#8BADE0"/><stop offset=".972" stop-color="#93B3E4"/></linearGradient><linearGradient id="E" x1="88.594" x2="83.574" y1="104.465" y2="102.969" gradientUnits="userSpaceOnUse"><stop stop-color="#FAFCFF"/><stop offset=".31" stop-color="#D7E6FC"/><stop offset=".524" stop-color="#C1D8F4"/><stop offset=".772" stop-color="#BBD6FF"/><stop offset="1" stop-color="#fff"/></linearGradient><linearGradient id="G" x1="54.859" x2="73.55" y1="112.471" y2="116.462" gradientUnits="userSpaceOnUse"><stop stop-color="#91B1E3"/><stop offset=".209" stop-color="#F0F6FF"/><stop offset=".648" stop-color="#A4BFE9"/><stop offset=".78" stop-color="#8BADE0"/><stop offset=".972" stop-color="#93B3E4"/></linearGradient><linearGradient id="H" x1="71.16" x2="62.624" y1="115.777" y2="111.602" gradientUnits="userSpaceOnUse"><stop stop-color="#FAFCFF"/><stop offset=".31" stop-color="#D7E6FC"/><stop offset=".524" stop-color="#C1D8F4"/><stop offset=".772" stop-color="#BBD6FF"/><stop offset="1" stop-color="#fff"/></linearGradient><linearGradient id="I" x1="63.78" x2="63.78" y1="117.851" y2="122.3" gradientUnits="userSpaceOnUse"><stop stop-color="#6A88C3"/><stop offset=".479" stop-color="#E4EFFD"/><stop offset="1" stop-color="#E1ECFD"/></linearGradient><linearGradient id="J" x1="62.802" x2="62.802" y1="117.965" y2="121.515" gradientUnits="userSpaceOnUse"><stop stop-color="#E2F5FF" stop-opacity="0"/><stop offset=".479" stop-color="#B6CAFE"/><stop offset="1" stop-color="#CCD7FF"/></linearGradient><linearGradient id="K" x1="64.758" x2="64.758" y1="117.965" y2="121.515" gradientUnits="userSpaceOnUse"><stop stop-color="#E2F5FF" stop-opacity="0"/><stop offset=".479" stop-color="#B6CAFE"/><stop offset="1" stop-color="#CCD7FF"/></linearGradient><linearGradient id="L" x1="63.504" x2="60.544" y1="121.763" y2="122.114" gradientUnits="userSpaceOnUse"><stop stop-color="#C9DEFC"/><stop offset=".31" stop-color="#ECF4FF"/><stop offset=".524" stop-color="#EAF6FF"/><stop offset=".614" stop-color="#CCE7FF"/><stop offset="1" stop-color="#CEE4F9"/></linearGradient><linearGradient id="N" x1="50.006" x2="79.535" y1="42.782" y2="101.446" gradientUnits="userSpaceOnUse"><stop stop-color="#FAFAFA"/><stop offset="1" stop-color="#C2C4CD"/></linearGradient><linearGradient id="O" x1="49.743" x2="75.203" y1="47.638" y2="94.621" gradientUnits="userSpaceOnUse"><stop stop-color="#CDCFD6"/><stop offset="1" stop-color="#EFEFF1"/></linearGradient><linearGradient id="Q" x1="52.499" x2="79.928" y1="45.932" y2="95.278" gradientUnits="userSpaceOnUse"><stop stop-color="#DDDFE2"/><stop offset="1" stop-color="#fff"/></linearGradient><linearGradient id="T" x1="63.914" x2="63.914" y1="40.818" y2="102.591" gradientUnits="userSpaceOnUse"><stop stop-color="#fff"/><stop offset="1" stop-color="#F2EDED" stop-opacity="0"/></linearGradient><linearGradient id="U" x1="32.32" x2="63.206" y1="46.407" y2="99.904" gradientUnits="userSpaceOnUse"><stop stop-color="#fff"/><stop offset="1" stop-color="#F2EDED" stop-opacity="0"/></linearGradient><linearGradient id="V" x1="93.21" x2="62.324" y1="46.407" y2="99.904" gradientUnits="userSpaceOnUse"><stop stop-color="#fff"/><stop offset="1" stop-color="#F2EDED" stop-opacity="0"/></linearGradient><linearGradient id="W" x1="63.916" x2="63.761" y1="82.588" y2="99.355" gradientUnits="userSpaceOnUse"><stop stop-color="#fff" stop-opacity="0"/><stop offset="1" stop-color="#D0DBFF"/></linearGradient><linearGradient id="Z" x1="63.967" x2="69.296" y1="0" y2="20.601" gradientUnits="userSpaceOnUse"><stop stop-color="#708FBE" stop-opacity="0"/><stop offset="1" stop-color="#72DDFF" stop-opacity=".63"/></linearGradient><linearGradient id="aa" x1="63.966" x2="69.295" y1="0" y2="20.601" gradientUnits="userSpaceOnUse"><stop stop-color="#708FBE" stop-opacity="0"/><stop offset="1" stop-color="#72DDFF" stop-opacity=".63"/></linearGradient><linearGradient id="ac" x1="70.647" x2="59.671" y1="15.908" y2="5.966" gradientUnits="userSpaceOnUse"><stop stop-color="#D8F6FF" stop-opacity=".63"/><stop offset=".219" stop-color="#A0D2FF" stop-opacity="0"/><stop offset=".491" stop-color="#8DC8FF" stop-opacity=".56"/><stop offset=".733" stop-color="#9ADBF8"/><stop offset="1" stop-color="#fff" stop-opacity="0"/><stop offset="1" stop-color="#BAEAFF" stop-opacity="0"/></linearGradient><linearGradient id="ad" x1="63.968" x2="63.809" y1="5.727" y2="16.305" gradientUnits="userSpaceOnUse"><stop stop-color="#9BE1FF"/><stop offset=".277" stop-color="#9BE1FF" stop-opacity=".51"/><stop offset="1" stop-color="#CDDEE6" stop-opacity=".15"/></linearGradient><linearGradient id="ae" x1="63.453" x2="63.374" y1="9.761" y2="13.521" gradientUnits="userSpaceOnUse"><stop stop-color="#C4C4C4" stop-opacity="0"/><stop offset=".732" stop-color="#DBF6FF" stop-opacity=".46"/></linearGradient><linearGradient id="af" x1="62.4" x2="64.513" y1="7.659" y2="9.652" gradientUnits="userSpaceOnUse"><stop offset=".224" stop-color="#DBF6FF" stop-opacity=".35"/><stop offset="1" stop-color="#C4C4C4" stop-opacity="0"/></linearGradient><linearGradient id="ai" x1="105.356" x2="96.197" y1="14.848" y2="34.055" gradientUnits="userSpaceOnUse"><stop stop-color="#708FBE" stop-opacity="0"/><stop offset="1" stop-color="#72DDFF" stop-opacity=".63"/></linearGradient><linearGradient id="aj" x1="105.356" x2="96.196" y1="14.849" y2="34.056" gradientUnits="userSpaceOnUse"><stop stop-color="#708FBE" stop-opacity="0"/><stop offset="1" stop-color="#72DDFF" stop-opacity=".63"/></linearGradient><linearGradient id="al" x1="100.249" x2="98.231" y1="31.331" y2="16.658" gradientUnits="userSpaceOnUse"><stop stop-color="#D8F6FF" stop-opacity=".63"/><stop offset=".219" stop-color="#A0D2FF" stop-opacity="0"/><stop offset=".491" stop-color="#8DC8FF" stop-opacity=".56"/><stop offset=".733" stop-color="#9ADBF8"/><stop offset="1" stop-color="#fff" stop-opacity="0"/><stop offset="1" stop-color="#BAEAFF" stop-opacity="0"/></linearGradient><linearGradient id="am" x1="101.674" x2="94.752" y1="19.236" y2="27.237" gradientUnits="userSpaceOnUse"><stop stop-color="#9BE1FF"/><stop offset=".277" stop-color="#9BE1FF" stop-opacity=".51"/><stop offset="1" stop-color="#CDDEE6" stop-opacity=".15"/></linearGradient><linearGradient id="an" x1="98.687" x2="96.21" y1="21.996" y2="24.826" gradientUnits="userSpaceOnUse"><stop stop-color="#C4C4C4" stop-opacity="0"/><stop offset=".732" stop-color="#DBF6FF" stop-opacity=".46"/></linearGradient><linearGradient id="ao" x1="99.231" x2="99.567" y1="19.707" y2="22.593" gradientUnits="userSpaceOnUse"><stop offset=".224" stop-color="#DBF6FF" stop-opacity=".35"/><stop offset="1" stop-color="#C4C4C4" stop-opacity="0"/></linearGradient><linearGradient id="aq" x1="22.225" x2="39.55" y1="14.88" y2="27.236" gradientUnits="userSpaceOnUse"><stop stop-color="#708FBE" stop-opacity="0"/><stop offset="1" stop-color="#72DDFF" stop-opacity=".63"/></linearGradient><linearGradient id="ar" x1="22.225" x2="39.55" y1="14.88" y2="27.236" gradientUnits="userSpaceOnUse"><stop stop-color="#708FBE" stop-opacity="0"/><stop offset="1" stop-color="#72DDFF" stop-opacity=".63"/></linearGradient><linearGradient id="at" x1="37.569" x2="22.769" y1="22.772" y2="22.211" gradientUnits="userSpaceOnUse"><stop stop-color="#D8F6FF" stop-opacity=".63"/><stop offset=".219" stop-color="#A0D2FF" stop-opacity="0"/><stop offset=".491" stop-color="#8DC8FF" stop-opacity=".56"/><stop offset=".733" stop-color="#9ADBF8"/><stop offset="1" stop-color="#fff" stop-opacity="0"/><stop offset="1" stop-color="#BAEAFF" stop-opacity="0"/></linearGradient><linearGradient id="au" x1="25.905" x2="32.583" y1="19.266" y2="27.473" gradientUnits="userSpaceOnUse"><stop stop-color="#9BE1FF"/><stop offset=".277" stop-color="#9BE1FF" stop-opacity=".51"/><stop offset="1" stop-color="#CDDEE6" stop-opacity=".15"/></linearGradient><linearGradient id="av" x1="28.107" x2="30.463" y1="22.688" y2="25.618" gradientUnits="userSpaceOnUse"><stop stop-color="#C4C4C4" stop-opacity="0"/><stop offset=".732" stop-color="#DBF6FF" stop-opacity=".46"/></linearGradient><linearGradient id="aw" x1="25.945" x2="28.845" y1="21.753" y2="21.923" gradientUnits="userSpaceOnUse"><stop offset=".224" stop-color="#DBF6FF" stop-opacity=".35"/><stop offset="1" stop-color="#C4C4C4" stop-opacity="0"/></linearGradient><filter id="b" width="12.22" height="12.221" x="57.72" y="20.404" color-interpolation-filters="sRGB" filterUnits="userSpaceOnUse"><feFlood flood-opacity="0" result="BackgroundImageFix"/><feBlend in="SourceGraphic" in2="BackgroundImageFix" result="shape"/><feGaussianBlur result="effect1_foregroundBlur_9093_2998" stdDeviation="1.401"/></filter><filter id="e" width="11.976" height="12.711" x="57.841" y="20.158" color-interpolation-filters="sRGB" filterUnits="userSpaceOnUse"><feFlood flood-opacity="0" result="BackgroundImageFix"/><feBlend in="SourceGraphic" in2="BackgroundImageFix" result="shape"/><feGaussianBlur result="effect1_foregroundBlur_9093_2998" stdDeviation=".42"/></filter><filter id="t" width="25.145" height="44.02" x="40.584" y="80.741" color-interpolation-filters="sRGB" filterUnits="userSpaceOnUse"><feFlood flood-opacity="0" result="BackgroundImageFix"/><feColorMatrix in="SourceAlpha" result="hardAlpha" values="0 0 0 0 0 0 0 0 0 0 0 0 0 0 0 0 0 0 127 0"/><feOffset/><feGaussianBlur stdDeviation="4"/><feColorMatrix values="0 0 0 0 0.288889 0 0 0 0 0.357333 0 0 0 0 0.533333 0 0 0 0.74 0"/><feBlend in2="BackgroundImageFix" result="effect1_dropShadow_9093_2998"/><feBlend in="SourceGraphic" in2="effect1_dropShadow_9093_2998" result="shape"/></filter><filter id="w" width="26.453" height="40.093" x="29.82" y="80.741" color-interpolation-filters="sRGB" filterUnits="userSpaceOnUse"><feFlood flood-opacity="0" result="BackgroundImageFix"/><feColorMatrix in="SourceAlpha" result="hardAlpha" values="0 0 0 0 0 0 0 0 0 0 0 0 0 0 0 0 0 0 127 0"/><feOffset/><feGaussianBlur stdDeviation="4"/><feColorMatrix values="0 0 0 0 0.288889 0 0 0 0 0.357333 0 0 0 0 0.533333 0 0 0 0.74 0"/><feBlend in2="BackgroundImageFix" result="effect1_dropShadow_9093_2998"/><feBlend in="SourceGraphic" in2="effect1_dropShadow_9093_2998" result="shape"/></filter><filter id="z" width="25.145" height="44.02" x="62.109" y="80.741" color-interpolation-filters="sRGB" filterUnits="userSpaceOnUse"><feFlood flood-opacity="0" result="BackgroundImageFix"/><feColorMatrix in="SourceAlpha" result="hardAlpha" values="0 0 0 0 0 0 0 0 0 0 0 0 0 0 0 0 0 0 127 0"/><feOffset/><feGaussianBlur stdDeviation="4"/><feColorMatrix values="0 0 0 0 0.288889 0 0 0 0 0.357333 0 0 0 0 0.533333 0 0 0 0.74 0"/><feBlend in2="BackgroundImageFix" result="effect1_dropShadow_9093_2998"/><feBlend in="SourceGraphic" in2="effect1_dropShadow_9093_2998" result="shape"/></filter><filter id="C" width="26.453" height="40.093" x="71.563" y="80.741" color-interpolation-filters="sRGB" filterUnits="userSpaceOnUse"><feFlood flood-opacity="0" result="BackgroundImageFix"/><feColorMatrix in="SourceAlpha" result="hardAlpha" values="0 0 0 0 0 0 0 0 0 0 0 0 0 0 0 0 0 0 127 0"/><feOffset/><feGaussianBlur stdDeviation="4"/><feColorMatrix values="0 0 0 0 0.288889 0 0 0 0 0.357333 0 0 0 0 0.533333 0 0 0 0.74 0"/><feBlend in2="BackgroundImageFix" result="effect1_dropShadow_9093_2998"/><feBlend in="SourceGraphic" in2="effect1_dropShadow_9093_2998" result="shape"/></filter><filter id="F" width="36.111" height="59.764" x="45.859" y="73.417" color-interpolation-filters="sRGB" filterUnits="userSpaceOnUse"><feFlood flood-opacity="0" result="BackgroundImageFix"/><feColorMatrix in="SourceAlpha" result="hardAlpha" values="0 0 0 0 0 0 0 0 0 0 0 0 0 0 0 0 0 0 127 0"/><feOffset/><feGaussianBlur stdDeviation="4"/><feColorMatrix values="0 0 0 0 0.288889 0 0 0 0 0.357333 0 0 0 0 0.533333 0 0 0 0.8 0"/><feBlend in2="BackgroundImageFix" result="effect1_dropShadow_9093_2998"/><feBlend in="SourceGraphic" in2="effect1_dropShadow_9093_2998" result="shape"/></filter><filter id="M" width="77.619" height="85.546" x="24.977" y="35.948" color-interpolation-filters="sRGB" filterUnits="userSpaceOnUse"><feFlood flood-opacity="0" result="BackgroundImageFix"/><feColorMatrix in="SourceAlpha" result="hardAlpha" values="0 0 0 0 0 0 0 0 0 0 0 0 0 0 0 0 0 0 127 0"/><feOffset dy="8"/><feGaussianBlur stdDeviation="3"/><feColorMatrix values="0 0 0 0 0.141181 0 0 0 0 0.190317 0 0 0 0 0.316667 0 0 0 0.51 0"/><feBlend in2="BackgroundImageFix" result="effect1_dropShadow_9093_2998"/><feBlend in="SourceGraphic" in2="effect1_dropShadow_9093_2998" result="shape"/></filter><filter id="P" width="57.166" height="61.482" x="35.163" y="40.914" color-interpolation-filters="sRGB" filterUnits="userSpaceOnUse"><feFlood flood-opacity="0" result="BackgroundImageFix"/><feBlend in="SourceGraphic" in2="BackgroundImageFix" result="shape"/><feGaussianBlur result="effect1_foregroundBlur_9093_2998" stdDeviation=".15"/></filter><filter id="X" width="51.184" height="54.971" x="38.326" y="44.221" color-interpolation-filters="sRGB" filterUnits="userSpaceOnUse"><feFlood flood-opacity="0" result="BackgroundImageFix"/><feBlend in="SourceGraphic" in2="BackgroundImageFix" result="shape"/><feColorMatrix in="SourceAlpha" result="hardAlpha" values="0 0 0 0 0 0 0 0 0 0 0 0 0 0 0 0 0 0 127 0"/><feOffset/><feGaussianBlur stdDeviation="6.724"/><feComposite in2="hardAlpha" k2="-1" k3="1" operator="arithmetic"/><feColorMatrix values="0 0 0 0 0.297222 0 0 0 0 0.329917 0 0 0 0 0.445833 0 0 0 1 0"/><feBlend in2="shape" result="effect1_innerShadow_9093_2998"/></filter><filter id="Y" width="15.633" height="21.238" x="56.15" y="-2.261" color-interpolation-filters="sRGB" filterUnits="userSpaceOnUse"><feFlood flood-opacity="0" result="BackgroundImageFix"/><feBlend in="SourceGraphic" in2="BackgroundImageFix" result="shape"/><feColorMatrix in="SourceAlpha" result="hardAlpha" values="0 0 0 0 0 0 0 0 0 0 0 0 0 0 0 0 0 0 127 0"/><feOffset dy="-6.061"/><feGaussianBlur stdDeviation="7.576"/><feComposite in2="hardAlpha" k2="-1" k3="1" operator="arithmetic"/><feColorMatrix values="0 0 0 0 0.595833 0 0 0 0 0.83025 0 0 0 0 1 0 0 0 1 0"/><feBlend in2="shape" result="effect1_innerShadow_9093_2998"/></filter><filter id="ag" width="81.638" height="81.132" x="56.708" y="-15.91" color-interpolation-filters="sRGB" filterUnits="userSpaceOnUse"><feFlood flood-opacity="0" result="BackgroundImageFix"/><feColorMatrix in="SourceAlpha" result="hardAlpha" values="0 0 0 0 0 0 0 0 0 0 0 0 0 0 0 0 0 0 127 0"/><feOffset/><feGaussianBlur stdDeviation="15.306"/><feColorMatrix values="0 0 0 0 0.558594 0 0 0 0 0.710156 0 0 0 0 0.9375 0 0 0 1 0"/><feBlend in2="BackgroundImageFix" result="effect1_dropShadow_9093_2998"/><feBlend in="SourceGraphic" in2="effect1_dropShadow_9093_2998" result="shape"/></filter><filter id="ah" width="15.607" height="21.416" x="89.83" y="10.55" color-interpolation-filters="sRGB" filterUnits="userSpaceOnUse"><feFlood flood-opacity="0" result="BackgroundImageFix"/><feBlend in="SourceGraphic" in2="BackgroundImageFix" result="shape"/><feColorMatrix in="SourceAlpha" result="hardAlpha" values="0 0 0 0 0 0 0 0 0 0 0 0 0 0 0 0 0 0 127 0"/><feOffset dy="-6.061"/><feGaussianBlur stdDeviation="7.576"/><feComposite in2="hardAlpha" k2="-1" k3="1" operator="arithmetic"/><feColorMatrix values="0 0 0 0 0.595833 0 0 0 0 0.83025 0 0 0 0 1 0 0 0 1 0"/><feBlend in2="shape" result="effect1_innerShadow_9093_2998"/></filter><filter id="ap" width="15.609" height="21.416" x="22.143" y="10.583" color-interpolation-filters="sRGB" filterUnits="userSpaceOnUse"><feFlood flood-opacity="0" result="BackgroundImageFix"/><feBlend in="SourceGraphic" in2="BackgroundImageFix" result="shape"/><feColorMatrix in="SourceAlpha" result="hardAlpha" values="0 0 0 0 0 0 0 0 0 0 0 0 0 0 0 0 0 0 127 0"/><feOffset dy="-6.061"/><feGaussianBlur stdDeviation="7.576"/><feComposite in2="hardAlpha" k2="-1" k3="1" operator="arithmetic"/><feColorMatrix values="0 0 0 0 0.595833 0 0 0 0 0.83025 0 0 0 0 1 0 0 0 1 0"/><feBlend in2="shape" result="effect1_innerShadow_9093_2998"/></filter><radialGradient id="c" cx="0" cy="0" r="1" gradientTransform="rotate(90 18.658 45.172)scale(5.29436)" gradientUnits="userSpaceOnUse"><stop stop-color="#E7ECFF"/><stop offset=".979" stop-color="#ABC3FF" stop-opacity=".882"/><stop offset="1" stop-color="#ACF" stop-opacity=".88"/></radialGradient><radialGradient id="S" cx="0" cy="0" r="1" gradientTransform="matrix(0 29.7111 -25.5915 0 63.918 71.706)" gradientUnits="userSpaceOnUse"><stop stop-color="#F5F7FF"/><stop offset="1" stop-color="#B3B5C5"/></radialGradient><radialGradient id="ab" cx="0" cy="0" r="1" gradientTransform="rotate(52.671 21.673 66.214)scale(13.9042)" gradientUnits="userSpaceOnUse"><stop offset=".739" stop-color="#9CB6DD" stop-opacity="0"/><stop offset=".898" stop-color="#C6F1FF" stop-opacity=".37"/><stop offset="1" stop-color="#EFFBFF" stop-opacity=".7"/></radialGradient><radialGradient id="ak" cx="0" cy="0" r="1" gradientTransform="rotate(92.671 39.314 56.463)scale(13.9042)" gradientUnits="userSpaceOnUse"><stop offset=".739" stop-color="#9CB6DD" stop-opacity="0"/><stop offset=".898" stop-color="#C6F1FF" stop-opacity=".37"/><stop offset="1" stop-color="#EFFBFF" stop-opacity=".7"/></radialGradient><radialGradient id="as" cx="0" cy="0" r="1" gradientTransform="rotate(12.671 -92.64 127.756)scale(13.9042)" gradientUnits="userSpaceOnUse"><stop offset=".739" stop-color="#9CB6DD" stop-opacity="0"/><stop offset=".898" stop-color="#C6F1FF" stop-opacity=".37"/><stop offset="1" stop-color="#EFFBFF" stop-opacity=".7"/></radialGradient><clipPath id="a"><path fill="#fff" d="M0 0h128v128H0z"/></clipPath></defs></svg>