<svg xmlns="http://www.w3.org/2000/svg" width="128" height="128" fill="none"><g clip-path="url(#a)"><path fill="url(#b)" d="m53.785 37.877 63.213 32.866-12.574 21.779-60.07-38.311z"/><path fill="url(#c)" d="m73.28 55.473 3.144 71.177H51.276l3.143-71.177z"/><path fill="url(#d)" d="m72.921 54.436-60.07 38.311L.279 70.968 63.49 38.102z"/><g filter="url(#e)" opacity=".3"><circle cx="39.892" cy="4.486" r="2.486" fill="#FFEBC4"/></g><g filter="url(#f)"><circle cx="29.42" cy="94.562" r=".829" fill="#FFEBC4"/></g><g filter="url(#g)" opacity=".3"><circle cx="36.276" cy="18.825" r=".829" fill="#FFEBC4"/></g><g filter="url(#h)"><circle cx="106.139" cy="67.466" r=".829" fill="#FFEBC4"/></g><g filter="url(#i)"><circle cx="6.217" cy="60.153" r="2.762" fill="#FDA"/></g><g filter="url(#j)" opacity=".6"><circle cx="132.329" cy="48.281" r="2.21" fill="#FDA"/></g><g filter="url(#k)" opacity=".8"><circle cx="40.921" cy="120.427" r="2.21" fill="#FDA"/></g><path fill="url(#l)" d="m33.963 43.926 2.255-11.55L3.353 25.96c-1.41 7.218 2.848 12.546 6.995 13.356z"/><path stroke="url(#m)" stroke-width="2.294" d="m33.63 44.15 2.256-11.55L3.86 26.348c-1.41 7.219 2.848 12.547 6.995 13.356z"/><path fill="url(#n)" d="m34.182 54.712 2.255-11.55-27.271-5.324c-1.41 7.219 2.848 12.546 6.995 13.356z"/><path stroke="url(#o)" stroke-width="2.294" d="m34.182 54.712 2.255-11.55-27.271-5.324c-1.41 7.219 2.848 12.546 6.995 13.356z"/><path fill="url(#p)" d="m41.805 66.856 2.255-11.55-27.271-5.323c-1.41 7.218 2.848 12.546 6.995 13.355z"/><path stroke="url(#q)" stroke-width="2.294" d="m41.805 66.856 2.255-11.55-27.271-5.323c-1.41 7.218 2.848 12.546 6.995 13.355z"/><g filter="url(#r)"><path fill="#ECD8BA" d="M35.607 94.509V70.502h14.677v33.77l-13.11-7.127a3 3 0 0 1-1.567-2.636"/><path stroke="url(#s)" d="M35.607 94.509V70.502h14.677v33.77l-13.11-7.127a3 3 0 0 1-1.567-2.636Z"/></g><path fill="url(#t)" fill-rule="evenodd" d="M37.224 95.05V83.326h-.19V95.21l.079.013c.263.044.556.2.796.428.239.228.416.52.46.826l.007.051 7.714 3.613V87.238h-.19V99.84l-7.35-3.442c-.064-.34-.26-.65-.51-.886a1.83 1.83 0 0 0-.816-.462" clip-rule="evenodd"/><path fill="#D4B195" fill-rule="evenodd" d="M45.887 99.143c.206-.348.218-.841.202-1.16l-.19.01c.015.317-.002.758-.176 1.053a.6.6 0 0 1-.376.29c-.175.044-.416.027-.749-.102l-.069.178c.354.137.638.166.865.11.23-.058.388-.201.493-.38" clip-rule="evenodd"/><g filter="url(#u)"><path fill="#ECD8BA" d="M91.033 94.509V70.502H76.357v33.77l13.11-7.127a3 3 0 0 0 1.566-2.636"/><path stroke="url(#v)" d="M91.033 94.509V70.502H76.357v33.77l13.11-7.127a3 3 0 0 0 1.566-2.636Z"/></g><path fill="url(#w)" fill-rule="evenodd" d="M89.419 95.05V83.326h.19V95.21l-.08.013c-.263.044-.556.2-.795.428-.24.228-.416.52-.46.826l-.008.051-7.713 3.613V87.238h.19V99.84l7.35-3.442c.063-.34.26-.65.51-.886.238-.228.532-.395.816-.462" clip-rule="evenodd"/><path fill="#D4B195" fill-rule="evenodd" d="M80.755 99.143c-.205-.348-.217-.841-.201-1.16l.19.01c-.016.317.001.758.175 1.053a.6.6 0 0 0 .376.29c.175.044.417.027.75-.102l.069.178c-.354.137-.639.166-.865.11a.78.78 0 0 1-.494-.38" clip-rule="evenodd"/><path fill="url(#x)" d="m92.469 44.304-2.255-11.55 32.865-6.416c1.409 7.218-2.849 12.546-6.995 13.356z"/><path stroke="url(#y)" stroke-width="2.294" d="m92.803 44.528-2.255-11.55 32.026-6.252c1.409 7.219-2.849 12.546-6.995 13.356z"/><path fill="url(#z)" d="m92.252 55.09-2.255-11.55 27.271-5.324c1.409 7.219-2.849 12.546-6.995 13.356z"/><path stroke="url(#A)" stroke-width="2.294" d="m92.252 55.09-2.255-11.55 27.271-5.324c1.409 7.219-2.849 12.546-6.995 13.356z"/><path fill="url(#B)" d="m84.633 67.235-2.255-11.55 27.271-5.324c1.409 7.22-2.849 12.547-6.995 13.356z"/><path stroke="url(#C)" stroke-width="2.294" d="m84.633 67.235-2.255-11.55 27.271-5.324c1.409 7.22-2.849 12.547-6.995 13.356z"/><g filter="url(#D)"><path fill="url(#E)" d="M47.574 69.078h31.348v39.808l-14.562 7.402a2.88 2.88 0 0 1-2.62-.004l-14.166-7.261z"/><path stroke="url(#F)" stroke-width="2" d="M47.574 69.078h31.348v39.808l-14.562 7.402a2.88 2.88 0 0 1-2.62-.004l-14.166-7.261z"/></g><path fill="url(#G)" fill-rule="evenodd" d="m67.805 114.25-3.448 1.752a2.88 2.88 0 0 1-2.62-.004l-3.622-1.856V85.036h9.69z" clip-rule="evenodd"/><path fill="url(#H)" fill-rule="evenodd" d="M49.285 90.451h.454v17.817l13.398 6.925 13.622-6.926V90.451h.454v17.978l-14.078 7.1-13.85-7.101z" clip-rule="evenodd"/><path fill="url(#I)" fill-rule="evenodd" d="M63.228 108.975v5.17h-.248v-5.17z" clip-rule="evenodd"/><path fill="url(#J)" fill-rule="evenodd" d="M62.36 112.31c-.492.569-1.093.696-1.507.627l.041-.245c.33.055.844-.041 1.28-.544.437-.505.806-1.431.806-3.049h.247c0 1.651-.375 2.645-.866 3.211" clip-rule="evenodd"/><path fill="url(#K)" fill-rule="evenodd" d="M63.848 112.31c.493.569 1.094.696 1.508.627l-.041-.245c-.33.055-.844-.041-1.28-.544-.437-.505-.805-1.431-.805-3.049h-.248c0 1.651.375 2.645.866 3.211" clip-rule="evenodd"/><path fill="url(#L)" fill-rule="evenodd" d="m63.053 114.258-2.797-1.567h.62l2.229 1.318 2.23-1.329h.546l-2.725 1.578a.12.12 0 0 1-.103 0" clip-rule="evenodd"/><g filter="url(#M)"><path fill="url(#N)" d="m55.122 20.204-18.623 10.13a17 17 0 0 0-8.876 14.934V69.09a17 17 0 0 0 8.876 14.934l18.623 10.13a17 17 0 0 0 16.247 0l18.623-10.13a17 17 0 0 0 8.876-14.934V45.268a17 17 0 0 0-8.876-14.933l-18.623-10.13a17 17 0 0 0-16.247 0"/><path fill="url(#O)" d="m55.11 26.458-13.23 7.197a16.94 16.94 0 0 0-8.843 14.877v17.153a16.94 16.94 0 0 0 8.843 14.877l13.23 7.196a16.94 16.94 0 0 0 16.185 0l13.23-7.196a16.94 16.94 0 0 0 8.843-14.877V48.532a16.94 16.94 0 0 0-8.843-14.877l-13.23-7.197a16.94 16.94 0 0 0-16.186 0"/><g filter="url(#P)"><path stroke="url(#Q)" d="m55.11 26.458-13.23 7.197a16.94 16.94 0 0 0-8.843 14.877v17.153a16.94 16.94 0 0 0 8.843 14.877l13.23 7.196a16.94 16.94 0 0 0 16.185 0l13.23-7.196a16.94 16.94 0 0 0 8.843-14.877V48.532a16.94 16.94 0 0 0-8.843-14.877l-13.23-7.197a16.94 16.94 0 0 0-16.186 0Z"/></g><g opacity=".5"><mask id="R" width="57" height="61" x="35" y="27" maskUnits="userSpaceOnUse" style="mask-type:alpha"><path fill="#A6D3DE" d="m55.696 29.085-11.675 6.346a16.11 16.11 0 0 0-8.418 14.155V64.74a16.11 16.11 0 0 0 8.417 14.154l11.676 6.346a16.11 16.11 0 0 0 15.386 0l11.676-6.346a16.11 16.11 0 0 0 8.417-14.154V49.586a16.11 16.11 0 0 0-8.417-14.155l-11.676-6.346a16.11 16.11 0 0 0-15.386 0"/></mask><g mask="url(#R)"><path fill="url(#S)" d="m55.696 29.085-11.675 6.346a16.11 16.11 0 0 0-8.418 14.155V64.74a16.11 16.11 0 0 0 8.417 14.154l11.676 6.346a16.11 16.11 0 0 0 15.386 0l11.676-6.346a16.11 16.11 0 0 0 8.417-14.154V49.586a16.11 16.11 0 0 0-8.417-14.155l-11.676-6.346a16.11 16.11 0 0 0-15.386 0"/><path fill="url(#T)" d="m58.744 90.696-1.103-67.069h11.497l-1.104 67.069z" opacity=".5"/><path fill="url(#U)" d="m58.598 90.1-34.49-57.53 9.957-5.75 32.578 58.636z" opacity=".5"/><path fill="url(#V)" d="m57.638 85.456 32.579-58.635 9.957 5.749-34.49 57.531z" opacity=".5"/><path fill="url(#W)" d="M35.603 53.329h55.571v36.089H35.603z"/><g filter="url(#X)"><path fill="#6052B4" fill-opacity=".01" d="m55.696 29.085-11.675 6.346a16.11 16.11 0 0 0-8.418 14.155V64.74a16.11 16.11 0 0 0 8.417 14.154l11.676 6.346a16.11 16.11 0 0 0 15.386 0l11.676-6.346a16.11 16.11 0 0 0 8.417-14.154V49.586a16.11 16.11 0 0 0-8.417-14.155l-11.676-6.346a16.11 16.11 0 0 0-15.386 0"/></g></g></g></g><path fill="url(#Y)" fill-rule="evenodd" d="M62.957 28.962c.71-.482 2.74 1.737 3.82 4.241q-.754 1.169-1.738 2.703.806-1.098 2.18-1.868c-.382.957.91 3.356.89 3.94q-.021.584-2.156 3.039a78 78 0 0 0 1.936-1.885l.186-.185c.941 4.918 1.412 12.87.952 14.575-.46 1.704-1.524 1.925-2.68 5.493q.814-1.279 2.218-2.953a11.6 11.6 0 0 1-1.627 5.136c-1.376 2.315-2.661 3.694-2.822 6.07 0 0-.2 3.812-.2 5.718 0 1.249.054 6.921.054 6.921l-1.104-.08s.053-5.7.053-6.959c0-2.016-.2-6.047-.2-6.047q-.084-.324-.18-.617c-.71-2.189-3.073-4.021-3.814-6.348a141 141 0 0 1-1.544-5.243q1.251.34 2.495 1.572c-.549-1.596-1.94-3.54-2.746-5.58.75-3.873.36-10.3 1.934-13.392.583-4.1 3.383-7.77 4.093-8.251" clip-rule="evenodd"/><mask id="Z" width="14" height="52" x="56" y="28" maskUnits="userSpaceOnUse" style="mask-type:luminance"><path fill="#fff" fill-rule="evenodd" d="M62.957 28.962c.71-.482 2.74 1.737 3.82 4.241q-.754 1.169-1.738 2.703.806-1.098 2.18-1.868c-.382.957.91 3.356.89 3.94q-.021.584-2.156 3.039a78 78 0 0 0 1.936-1.885l.186-.185c.941 4.918 1.412 12.87.952 14.575-.46 1.704-1.524 1.925-2.68 5.493q.814-1.279 2.218-2.953a11.6 11.6 0 0 1-1.627 5.136c-1.376 2.315-2.661 3.694-2.822 6.07 0 0-.2 3.812-.2 5.718 0 1.249.054 6.921.054 6.921l-1.104-.08s.053-5.7.053-6.959c0-2.016-.2-6.047-.2-6.047q-.084-.324-.18-.617c-.71-2.189-3.073-4.021-3.814-6.348a141 141 0 0 1-1.544-5.243q1.251.34 2.495 1.572c-.549-1.596-1.94-3.54-2.746-5.58.75-3.873.36-10.3 1.934-13.392.583-4.1 3.383-7.77 4.093-8.251" clip-rule="evenodd"/></mask><g mask="url(#Z)"><path fill="url(#aa)" fill-rule="evenodd" d="M69.206 50.275c0 2.948-2.627 6.128-2.858 8.74 1.762-2.86 2.286-3.92 3.122-4.37s-.264-7.318-.264-4.37" clip-rule="evenodd"/><path fill="url(#ab)" fill-rule="evenodd" d="m59.674 56.185.682.874s-.502-1.834-1.093-2.658c-.59-.824-2.045-3.196-2.335-3.797-.291-.6-.326 1.082-.326 1.082z" clip-rule="evenodd"/><path fill="url(#ac)" fill-rule="evenodd" d="M67.925 37.15c.178.49-.203 1.286-.922 2.334s-1.755 2.243-1.755 2.243l.703-.71 2.475-2.639.48-1.033s-1.158-.685-.98-.195" clip-rule="evenodd"/><path fill="url(#ad)" fill-rule="evenodd" d="m65.248 35.65-.762.928s1.348-2.122 1.57-2.805c.224-.682.61-1.134.306-2.088-.305-.953 1.318 1.481 1.318 1.481l-1.76 1.638z" clip-rule="evenodd"/><path fill="#EAC893" fill-rule="evenodd" d="M62.627 81.703s.24-6.056.285-8.751c.067-3.918.285-41.767.285-41.767s.722 33.93.722 42.017 1.79 9.734 1.79 9.734l-3.082-.615z" clip-rule="evenodd"/><path fill="url(#ae)" fill-rule="evenodd" d="M63.316 79.98c-.173-.055-.352-.11-.505.374 0 3.171-.467 4.456-.467 4.456s1.16 1.74 1.16 2.767c0-.996 1.159-2.767 1.159-2.767s-.468-1.573-.468-4.456c-.17-.54-.339-.47-.52-.395a.7.7 0 0 1-.172.053.5.5 0 0 1-.187-.032m.463 2.69a.288.288 0 1 1-.577 0 .288.288 0 0 1 .577 0" clip-rule="evenodd"/><mask id="af" width="3" height="9" x="62" y="79" maskUnits="userSpaceOnUse" style="mask-type:luminance"><path fill="#fff" fill-rule="evenodd" d="M63.316 79.979c-.173-.055-.352-.11-.505.374 0 3.171-.467 4.456-.467 4.456s1.16 1.74 1.16 2.767c0-.996 1.159-2.767 1.159-2.767s-.468-1.573-.468-4.456c-.17-.54-.339-.47-.52-.395-.056.023-.113.047-.172.053a.5.5 0 0 1-.187-.032m.463 2.69a.288.288 0 1 1-.577 0 .288.288 0 0 1 .577 0" clip-rule="evenodd"/></mask><g mask="url(#af)"><path fill="url(#ag)" d="M61.773 79.777h3.459v1.153h-3.459z" opacity=".6"/></g></g><mask id="ah" width="3" height="4" x="62" y="84" maskUnits="userSpaceOnUse" style="mask-type:luminance"><path fill="#fff" fill-rule="evenodd" d="M63.503 86.642c.218-.895 1.16-1.832 1.16-1.832s-1.16 1.771-1.16 2.767c0-1.027-1.16-2.767-1.16-2.767s.908.947 1.16 1.832" clip-rule="evenodd"/></mask><g filter="url(#ai)" mask="url(#ah)"><rect width="2.194" height="1.14" x="62.318" y="79.375" fill="url(#aj)" rx=".57"/></g></g><defs><linearGradient id="b" x1="110.711" x2="49.07" y1="81.632" y2="46.044" gradientUnits="userSpaceOnUse"><stop stop-color="#FFF6D6" stop-opacity="0"/><stop offset="1" stop-color="#FFEFC5" stop-opacity=".4"/></linearGradient><linearGradient id="c" x1="63.85" x2="63.85" y1="126.65" y2="55.473" gradientUnits="userSpaceOnUse"><stop stop-color="#FFF6D6" stop-opacity="0"/><stop offset="1" stop-color="#FFEFC5" stop-opacity=".4"/></linearGradient><linearGradient id="d" x1="6.565" x2="68.206" y1="81.858" y2="46.269" gradientUnits="userSpaceOnUse"><stop stop-color="#FFF6D6" stop-opacity="0"/><stop offset="1" stop-color="#FFEFC5" stop-opacity=".4"/></linearGradient><linearGradient id="l" x1="17.781" x2="9.906" y1="40.767" y2="29.071" gradientUnits="userSpaceOnUse"><stop stop-color="#D2A86B"/><stop offset=".875" stop-color="#FFF5DE"/></linearGradient><linearGradient id="m" x1="5.464" x2="12.514" y1="26.661" y2="40.028" gradientUnits="userSpaceOnUse"><stop stop-color="#FFF5DE"/><stop offset=".379" stop-color="#F5E3C4"/><stop offset=".481" stop-color="#E6CA9E"/><stop offset=".729" stop-color="#D2A86B"/></linearGradient><linearGradient id="n" x1="23.594" x2="15.719" y1="52.645" y2="40.949" gradientUnits="userSpaceOnUse"><stop stop-color="#E0C08E"/><stop offset=".875" stop-color="#FFF5DE"/></linearGradient><linearGradient id="o" x1="10.77" x2="26.62" y1="38.151" y2="56.967" gradientUnits="userSpaceOnUse"><stop stop-color="#FFF5DE"/><stop offset=".379" stop-color="#FFF5DE"/><stop offset=".481" stop-color="#EAD2A9"/><stop offset=".729" stop-color="#D2A86B"/></linearGradient><linearGradient id="p" x1="31.217" x2="23.342" y1="64.79" y2="53.094" gradientUnits="userSpaceOnUse"><stop stop-color="#E0C08E"/><stop offset=".875" stop-color="#FFF5DE"/></linearGradient><linearGradient id="q" x1="18.393" x2="34.243" y1="50.296" y2="69.112" gradientUnits="userSpaceOnUse"><stop stop-color="#FFF5DE"/><stop offset=".379" stop-color="#FFF5DE"/><stop offset=".481" stop-color="#EAD2A9"/><stop offset=".729" stop-color="#D2A86B"/></linearGradient><linearGradient id="s" x1="35.607" x2="50.675" y1="93.518" y2="96.922" gradientUnits="userSpaceOnUse"><stop stop-color="#8D664F"/><stop offset=".209" stop-color="#C49F7D"/><stop offset=".648" stop-color="#FFF1DC"/><stop offset=".828" stop-color="#B38368"/><stop offset=".972" stop-color="#8C5F4C"/></linearGradient><linearGradient id="t" x1="37.461" x2="42.911" y1="93.016" y2="91.391" gradientUnits="userSpaceOnUse"><stop stop-color="#C7A383"/><stop offset=".31" stop-color="#D5B198"/><stop offset=".524" stop-color="#CBA68C"/><stop offset=".772" stop-color="#BB9478"/><stop offset="1" stop-color="#D7B49B"/></linearGradient><linearGradient id="v" x1="91.033" x2="75.965" y1="93.518" y2="96.922" gradientUnits="userSpaceOnUse"><stop stop-color="#8D664F"/><stop offset=".209" stop-color="#C49F7D"/><stop offset=".648" stop-color="#FFF1DC"/><stop offset=".828" stop-color="#B38368"/><stop offset=".972" stop-color="#8C5F4C"/></linearGradient><linearGradient id="w" x1="89.182" x2="83.732" y1="93.016" y2="91.391" gradientUnits="userSpaceOnUse"><stop stop-color="#C7A383"/><stop offset=".31" stop-color="#D5B198"/><stop offset=".524" stop-color="#CBA68C"/><stop offset=".772" stop-color="#BB9478"/><stop offset="1" stop-color="#D7B49B"/></linearGradient><linearGradient id="x" x1="108.65" x2="116.525" y1="41.145" y2="29.449" gradientUnits="userSpaceOnUse"><stop stop-color="#D2A86B"/><stop offset=".875" stop-color="#FFF5DE"/></linearGradient><linearGradient id="y" x1="120.969" x2="113.92" y1="27.039" y2="40.406" gradientUnits="userSpaceOnUse"><stop stop-color="#FFF5DE"/><stop offset=".379" stop-color="#F5E3C4"/><stop offset=".481" stop-color="#E6CA9E"/><stop offset=".729" stop-color="#D2A86B"/></linearGradient><linearGradient id="z" x1="102.839" x2="110.714" y1="53.023" y2="41.327" gradientUnits="userSpaceOnUse"><stop stop-color="#E0C08E"/><stop offset=".875" stop-color="#FFF5DE"/></linearGradient><linearGradient id="A" x1="115.664" x2="99.814" y1="38.529" y2="57.345" gradientUnits="userSpaceOnUse"><stop stop-color="#FFF5DE"/><stop offset=".379" stop-color="#FFF5DE"/><stop offset=".481" stop-color="#EAD2A9"/><stop offset=".729" stop-color="#D2A86B"/></linearGradient><linearGradient id="B" x1="95.22" x2="103.095" y1="65.168" y2="53.473" gradientUnits="userSpaceOnUse"><stop stop-color="#E0C08E"/><stop offset=".875" stop-color="#FFF5DE"/></linearGradient><linearGradient id="C" x1="108.045" x2="92.195" y1="50.675" y2="69.491" gradientUnits="userSpaceOnUse"><stop stop-color="#FFF5DE"/><stop offset=".379" stop-color="#FFF5DE"/><stop offset=".481" stop-color="#EAD2A9"/><stop offset=".729" stop-color="#D2A86B"/></linearGradient><linearGradient id="E" x1="63.248" x2="63.248" y1="90.167" y2="116.955" gradientUnits="userSpaceOnUse"><stop stop-color="#B58D70"/><stop offset=".229" stop-color="#B58D70"/><stop offset=".477" stop-color="#D8B59B"/><stop offset=".883" stop-color="#B58D70"/><stop offset="1" stop-color="#B58D70"/></linearGradient><linearGradient id="F" x1="47.574" x2="77.888" y1="101.708" y2="112.028" gradientUnits="userSpaceOnUse"><stop stop-color="#8D664F"/><stop offset=".209" stop-color="#FFF5E6"/><stop offset=".648" stop-color="#ECD8BA"/><stop offset=".78" stop-color="#D0A568"/><stop offset=".972" stop-color="#8C5F4C"/></linearGradient><linearGradient id="G" x1="62.96" x2="62.96" y1="85.036" y2="116.315" gradientUnits="userSpaceOnUse"><stop stop-color="#DDBFA9"/><stop offset=".222" stop-color="#DDBFA9"/><stop offset=".67" stop-color="#EBD4C4"/><stop offset=".899" stop-color="#DDBFA9"/><stop offset="1" stop-color="#DDBFA9"/></linearGradient><linearGradient id="H" x1="75.895" x2="64.46" y1="105.367" y2="96.506" gradientUnits="userSpaceOnUse"><stop stop-color="#ECD8BA"/><stop offset=".31" stop-color="#EBD3AE"/><stop offset=".524" stop-color="#E2C69C"/><stop offset=".772" stop-color="#E3C8A0"/><stop offset="1" stop-color="#ECD8BA"/></linearGradient><linearGradient id="I" x1="63.104" x2="63.104" y1="108.975" y2="113.805" gradientUnits="userSpaceOnUse"><stop stop-color="#FAECD8"/><stop offset=".492" stop-color="#F9EBD7"/><stop offset="1" stop-color="#ECD5B4"/></linearGradient><linearGradient id="J" x1="62.04" x2="62.04" y1="109.099" y2="112.954" gradientUnits="userSpaceOnUse"><stop stop-color="#F9EBD7"/><stop offset=".479" stop-color="#FAEDD9"/><stop offset="1" stop-color="#F8E9D4"/></linearGradient><linearGradient id="K" x1="64.169" x2="64.169" y1="109.099" y2="112.954" gradientUnits="userSpaceOnUse"><stop stop-color="#FAEDD8"/><stop offset=".479" stop-color="#FAECD8"/><stop offset="1" stop-color="#EAD4B2"/></linearGradient><linearGradient id="L" x1="62.805" x2="59.591" y1="113.223" y2="113.604" gradientUnits="userSpaceOnUse"><stop stop-color="#E5CBA6"/><stop offset=".31" stop-color="#FAEDDA"/><stop offset=".524" stop-color="#F3E2C9"/><stop offset=".614" stop-color="#EFDCC0"/><stop offset="1" stop-color="#EFDCC0"/></linearGradient><linearGradient id="N" x1="48.284" x2="80.344" y1="25.759" y2="89.453" gradientUnits="userSpaceOnUse"><stop stop-color="#FFF5DE"/><stop offset="1" stop-color="#CFA365"/></linearGradient><linearGradient id="O" x1="47.999" x2="75.642" y1="31.033" y2="82.044" gradientUnits="userSpaceOnUse"><stop stop-color="#D2A86C"/><stop offset="1" stop-color="#F8E6C0"/></linearGradient><linearGradient id="Q" x1="50.991" x2="80.771" y1="29.18" y2="82.757" gradientUnits="userSpaceOnUse"><stop stop-color="#FFF6E7"/><stop offset="1" stop-color="#FFF8EC"/></linearGradient><linearGradient id="T" x1="63.389" x2="63.389" y1="23.627" y2="90.696" gradientUnits="userSpaceOnUse"><stop stop-color="#fff"/><stop offset="1" stop-color="#F2EDED" stop-opacity="0"/></linearGradient><linearGradient id="U" x1="29.086" x2="62.62" y1="29.695" y2="87.778" gradientUnits="userSpaceOnUse"><stop stop-color="#fff"/><stop offset="1" stop-color="#F2EDED" stop-opacity="0"/></linearGradient><linearGradient id="V" x1="95.195" x2="61.661" y1="29.696" y2="87.779" gradientUnits="userSpaceOnUse"><stop stop-color="#fff"/><stop offset="1" stop-color="#F2EDED" stop-opacity="0"/></linearGradient><linearGradient id="W" x1="63.389" x2="63.221" y1="68.978" y2="87.183" gradientUnits="userSpaceOnUse"><stop stop-color="#fff" stop-opacity="0"/><stop offset="1" stop-color="#FFF1E3"/></linearGradient><linearGradient id="Y" x1="62.095" x2="71.237" y1="16.108" y2="16.777" gradientUnits="userSpaceOnUse"><stop offset=".169" stop-color="#FDF2D9"/><stop offset=".305" stop-color="#FFF7E3"/><stop offset=".452" stop-color="#FFFCF4"/><stop offset=".581" stop-color="#FFF1D9"/><stop offset=".706" stop-color="#F3E0BF"/><stop offset=".941" stop-color="#FFF5DE"/></linearGradient><linearGradient id="aa" x1="67.793" x2="70.335" y1="47.168" y2="47.448" gradientUnits="userSpaceOnUse"><stop offset=".169" stop-color="#FDF2D9"/><stop offset=".305" stop-color="#FFF7E3"/><stop offset=".452" stop-color="#FFFCF4"/><stop offset=".581" stop-color="#FFF1D9"/><stop offset=".706" stop-color="#F3E0BF"/><stop offset=".941" stop-color="#FFF5DE"/></linearGradient><linearGradient id="ab" x1="58.181" x2="60.911" y1="48.789" y2="49.26" gradientUnits="userSpaceOnUse"><stop offset=".169" stop-color="#FDF2D9"/><stop offset=".305" stop-color="#FFF7E3"/><stop offset=".452" stop-color="#FFFCF4"/><stop offset=".581" stop-color="#FFF1D9"/><stop offset=".706" stop-color="#F3E0BF"/><stop offset=".941" stop-color="#FFF5DE"/></linearGradient><linearGradient id="ac" x1="66.787" x2="69.385" y1="35.747" y2="36.35" gradientUnits="userSpaceOnUse"><stop offset=".169" stop-color="#FDF2D9"/><stop offset=".305" stop-color="#FFF7E3"/><stop offset=".452" stop-color="#FFFCF4"/><stop offset=".581" stop-color="#FFF1D9"/><stop offset=".706" stop-color="#F3E0BF"/><stop offset=".941" stop-color="#FFF5DE"/></linearGradient><linearGradient id="ad" x1="65.83" x2="68.14" y1="30.123" y2="30.558" gradientUnits="userSpaceOnUse"><stop offset=".169" stop-color="#FDF2D9"/><stop offset=".305" stop-color="#FFF7E3"/><stop offset=".452" stop-color="#FFFCF4"/><stop offset=".581" stop-color="#FFF1D9"/><stop offset=".706" stop-color="#F3E0BF"/><stop offset=".941" stop-color="#FFF5DE"/></linearGradient><linearGradient id="ae" x1="63.32" x2="65.041" y1="77.986" y2="78.144" gradientUnits="userSpaceOnUse"><stop offset=".169" stop-color="#FDF2D9"/><stop offset=".305" stop-color="#FFF7E3"/><stop offset=".452" stop-color="#FFFCF4"/><stop offset=".581" stop-color="#FFF1D9"/><stop offset=".706" stop-color="#F3E0BF"/><stop offset=".941" stop-color="#FFF5DE"/></linearGradient><linearGradient id="ag" x1="63.229" x2="64.643" y1="79.488" y2="80.778" gradientUnits="userSpaceOnUse"><stop offset=".169" stop-color="#FDF2D9"/><stop offset=".305" stop-color="#FFF7E3"/><stop offset=".452" stop-color="#FFFCF4"/><stop offset=".581" stop-color="#FFF1D9"/><stop offset=".706" stop-color="#F3E0BF"/><stop offset=".941" stop-color="#FFF5DE"/></linearGradient><linearGradient id="aj" x1="63.242" x2="64.466" y1="79.089" y2="79.805" gradientUnits="userSpaceOnUse"><stop offset=".169" stop-color="#FDF2D9"/><stop offset=".305" stop-color="#FFF7E3"/><stop offset=".452" stop-color="#FFFCF4"/><stop offset=".581" stop-color="#FFF1D9"/><stop offset=".706" stop-color="#F3E0BF"/><stop offset=".941" stop-color="#FFF5DE"/></linearGradient><filter id="e" width="45.582" height="45.583" x="17.101" y="-18.306" color-interpolation-filters="sRGB" filterUnits="userSpaceOnUse"><feFlood flood-opacity="0" result="BackgroundImageFix"/><feBlend in="SourceGraphic" in2="BackgroundImageFix" result="shape"/><feGaussianBlur result="effect1_foregroundBlur_9093_2306" stdDeviation="10.153"/></filter><filter id="f" width="5.041" height="5.042" x="26.9" y="92.041" color-interpolation-filters="sRGB" filterUnits="userSpaceOnUse"><feFlood flood-opacity="0" result="BackgroundImageFix"/><feBlend in="SourceGraphic" in2="BackgroundImageFix" result="shape"/><feGaussianBlur result="effect1_foregroundBlur_9093_2306" stdDeviation=".846"/></filter><filter id="g" width="17.656" height="17.657" x="27.447" y="9.996" color-interpolation-filters="sRGB" filterUnits="userSpaceOnUse"><feFlood flood-opacity="0" result="BackgroundImageFix"/><feBlend in="SourceGraphic" in2="BackgroundImageFix" result="shape"/><feGaussianBlur result="effect1_foregroundBlur_9093_2306" stdDeviation="4"/></filter><filter id="h" width="13.656" height="13.657" x="99.311" y="60.638" color-interpolation-filters="sRGB" filterUnits="userSpaceOnUse"><feFlood flood-opacity="0" result="BackgroundImageFix"/><feBlend in="SourceGraphic" in2="BackgroundImageFix" result="shape"/><feGaussianBlur result="effect1_foregroundBlur_9093_2306" stdDeviation="3"/></filter><filter id="i" width="45.523" height="45.524" x="-16.545" y="37.391" color-interpolation-filters="sRGB" filterUnits="userSpaceOnUse"><feFlood flood-opacity="0" result="BackgroundImageFix"/><feBlend in="SourceGraphic" in2="BackgroundImageFix" result="shape"/><feGaussianBlur result="effect1_foregroundBlur_9093_2306" stdDeviation="10"/></filter><filter id="j" width="38.263" height="38.262" x="113.198" y="29.15" color-interpolation-filters="sRGB" filterUnits="userSpaceOnUse"><feFlood flood-opacity="0" result="BackgroundImageFix"/><feBlend in="SourceGraphic" in2="BackgroundImageFix" result="shape"/><feGaussianBlur result="effect1_foregroundBlur_9093_2306" stdDeviation="8.461"/></filter><filter id="k" width="38.263" height="38.262" x="21.79" y="101.296" color-interpolation-filters="sRGB" filterUnits="userSpaceOnUse"><feFlood flood-opacity="0" result="BackgroundImageFix"/><feBlend in="SourceGraphic" in2="BackgroundImageFix" result="shape"/><feGaussianBlur result="effect1_foregroundBlur_9093_2306" stdDeviation="8.461"/></filter><filter id="r" width="31.676" height="51.111" x="27.107" y="62.002" color-interpolation-filters="sRGB" filterUnits="userSpaceOnUse"><feFlood flood-opacity="0" result="BackgroundImageFix"/><feColorMatrix in="SourceAlpha" result="hardAlpha" values="0 0 0 0 0 0 0 0 0 0 0 0 0 0 0 0 0 0 127 0"/><feOffset/><feGaussianBlur stdDeviation="4"/><feColorMatrix values="0 0 0 0 0.7 0 0 0 0 0.561568 0 0 0 0 0.32375 0 0 0 0.78 0"/><feBlend in2="BackgroundImageFix" result="effect1_dropShadow_9093_2306"/><feBlend in="SourceGraphic" in2="effect1_dropShadow_9093_2306" result="shape"/></filter><filter id="u" width="31.676" height="51.111" x="67.857" y="62.002" color-interpolation-filters="sRGB" filterUnits="userSpaceOnUse"><feFlood flood-opacity="0" result="BackgroundImageFix"/><feColorMatrix in="SourceAlpha" result="hardAlpha" values="0 0 0 0 0 0 0 0 0 0 0 0 0 0 0 0 0 0 127 0"/><feOffset/><feGaussianBlur stdDeviation="4"/><feColorMatrix values="0 0 0 0 0.7 0 0 0 0 0.561568 0 0 0 0 0.32375 0 0 0 0.78 0"/><feBlend in2="BackgroundImageFix" result="effect1_dropShadow_9093_2306"/><feBlend in="SourceGraphic" in2="effect1_dropShadow_9093_2306" result="shape"/></filter><filter id="D" width="49.348" height="65.523" x="38.574" y="60.078" color-interpolation-filters="sRGB" filterUnits="userSpaceOnUse"><feFlood flood-opacity="0" result="BackgroundImageFix"/><feColorMatrix in="SourceAlpha" result="hardAlpha" values="0 0 0 0 0 0 0 0 0 0 0 0 0 0 0 0 0 0 127 0"/><feOffset/><feGaussianBlur stdDeviation="4"/><feColorMatrix values="0 0 0 0 0.7 0 0 0 0 0.561568 0 0 0 0 0.32375 0 0 0 0.78 0"/><feBlend in2="BackgroundImageFix" result="effect1_dropShadow_9093_2306"/><feBlend in="SourceGraphic" in2="effect1_dropShadow_9093_2306" result="shape"/></filter><filter id="M" width="83.246" height="92.083" x="21.623" y="18.138" color-interpolation-filters="sRGB" filterUnits="userSpaceOnUse"><feFlood flood-opacity="0" result="BackgroundImageFix"/><feColorMatrix in="SourceAlpha" result="hardAlpha" values="0 0 0 0 0 0 0 0 0 0 0 0 0 0 0 0 0 0 127 0"/><feOffset dy="8"/><feGaussianBlur stdDeviation="3"/><feColorMatrix values="0 0 0 0 0.4375 0 0 0 0 0.287401 0 0 0 0 0.111198 0 0 0 0.6 0"/><feBlend in2="BackgroundImageFix" result="effect1_dropShadow_9093_2306"/><feBlend in="SourceGraphic" in2="effect1_dropShadow_9093_2306" result="shape"/></filter><filter id="P" width="61.93" height="67.018" x="32.237" y="23.599" color-interpolation-filters="sRGB" filterUnits="userSpaceOnUse"><feFlood flood-opacity="0" result="BackgroundImageFix"/><feBlend in="SourceGraphic" in2="BackgroundImageFix" result="shape"/><feGaussianBlur result="effect1_foregroundBlur_9093_2306" stdDeviation=".15"/></filter><filter id="X" width="55.57" height="60.065" x="35.603" y="27.13" color-interpolation-filters="sRGB" filterUnits="userSpaceOnUse"><feFlood flood-opacity="0" result="BackgroundImageFix"/><feBlend in="SourceGraphic" in2="BackgroundImageFix" result="shape"/><feColorMatrix in="SourceAlpha" result="hardAlpha" values="0 0 0 0 0 0 0 0 0 0 0 0 0 0 0 0 0 0 127 0"/><feOffset/><feGaussianBlur stdDeviation="6.724"/><feComposite in2="hardAlpha" k2="-1" k3="1" operator="arithmetic"/><feColorMatrix values="0 0 0 0 0.458333 0 0 0 0 0.256743 0 0 0 0 0.0706597 0 0 0 1 0"/><feBlend in2="shape" result="effect1_innerShadow_9093_2306"/></filter><filter id="ai" width="16.661" height="15.605" x="55.447" y="75.759" color-interpolation-filters="sRGB" filterUnits="userSpaceOnUse"><feFlood flood-opacity="0" result="BackgroundImageFix"/><feColorMatrix in="SourceAlpha" result="hardAlpha" values="0 0 0 0 0 0 0 0 0 0 0 0 0 0 0 0 0 0 127 0"/><feOffset dx=".362" dy="3.616"/><feGaussianBlur stdDeviation="3.616"/><feColorMatrix values="0 0 0 0 0.795833 0 0 0 0 0.519745 0 0 0 0 0.195642 0 0 0 0.42 0"/><feBlend in2="BackgroundImageFix" result="effect1_dropShadow_9093_2306"/><feBlend in="SourceGraphic" in2="effect1_dropShadow_9093_2306" result="shape"/></filter><radialGradient id="S" cx="0" cy="0" r="1" gradientTransform="matrix(0 32.2584 -27.7856 0 63.39 57.163)" gradientUnits="userSpaceOnUse"><stop stop-color="#FFE4BA"/><stop offset="1" stop-color="#DEA44D"/></radialGradient><clipPath id="a"><path fill="#fff" d="M0 0h128v128H0z"/></clipPath></defs></svg>