<svg xmlns="http://www.w3.org/2000/svg" width="154" height="154" fill="none"><g clip-path="url(#a)" filter="url(#b)"><path fill="#535E84" fill-rule="evenodd" d="M120.361 117.94s-8.337-5.128-11.171-8.03c-2.835-2.903 7.829 1.314 7.829 1.314zM74.945 135.239q-1.92-7.622-2.246-13.832c-.002-.039.329.031.327-.008q-.26-4.467 4.61 6.491z" clip-rule="evenodd"/><path fill="#E4E6EE" fill-rule="evenodd" d="M30.742 115.282s4.264-7.168 7.972-11.107c.027-.028.22.248.244.218 2.842-3.445-1.26 7.359-1.26 7.359zM13.453 70.287q8.581-2.325 14.193-2.317c.04 0 .202.405.037.326q-2.048 4.167-6.71 4.045z" clip-rule="evenodd"/><path fill="#fff" fill-rule="evenodd" d="M33.8 25.906c5.33 2.6 8.334 5.587 11.154 8.058.03.025-.112.44-.185.27-2.844 1.196-4.12.093-6.413-2.017z" clip-rule="evenodd"/><path fill="#E4E6EE" fill-rule="evenodd" d="M79.057 8.457c1.783 5.887 2.12 10.315 2.267 14.294.002.03-4.033 1.182-.313.094-2.96-.87-1.679-3.805-2.139-6.894z" clip-rule="evenodd"/><path fill="#535E84" fill-rule="evenodd" d="M123.182 28.898s-3.849 6.863-7.992 11.226c-4.144 4.362 1.308-7.867 1.308-7.867zM140.543 74.357c-5.153 1.822-10.22 2.258-13.551 2.258-3.332 0-.81-1.37 6.461-4.633z" clip-rule="evenodd"/><path fill="url(#c)" fill-rule="evenodd" d="M77.228 114.643c23.397 0 42.363-19.057 42.363-42.566 0-23.508-18.966-42.565-42.363-42.565S34.865 48.569 34.865 72.077c0 23.509 18.967 42.566 42.363 42.566" clip-rule="evenodd"/><mask id="d" width="86" height="86" x="34" y="29" maskUnits="userSpaceOnUse" style="mask-type:luminance"><path fill="#fff" fill-rule="evenodd" d="M77.228 114.643c23.397 0 42.363-19.057 42.363-42.566 0-23.508-18.966-42.565-42.363-42.565S34.865 48.569 34.865 72.077c0 23.509 18.967 42.566 42.363 42.566" clip-rule="evenodd"/></mask><g mask="url(#d)"><path fill="url(#e)" fill-rule="evenodd" d="M77.23 113.726c22.893 0 41.451-18.647 41.451-41.65s-18.558-41.65-41.452-41.65-41.452 18.647-41.452 41.65 18.559 41.65 41.452 41.65" clip-rule="evenodd"/><path fill="url(#f)" fill-rule="evenodd" d="M77.23 108.234c19.874 0 35.986-16.189 35.986-36.158S97.104 35.918 77.23 35.918c-19.875 0-35.986 16.188-35.986 36.158s16.112 36.158 35.986 36.158" clip-rule="evenodd"/><path fill="url(#g)" stroke="url(#h)" stroke-width=".708" d="M111.95 72.077c0 19.27-15.547 34.888-34.721 34.888s-34.72-15.618-34.72-34.889c0-19.27 15.546-34.888 34.72-34.888s34.721 15.618 34.721 34.888Z"/><g filter="url(#i)"><path fill="#535E84" fill-rule="evenodd" d="m79.555 17.248-.499-4.214-2.708 3.256c-7.153 8.6-15.903 13.757-26.31 15.525-3.702.629-6.818 2.035-9.35 4.198a161 161 0 0 0-3.57-2.906l-3.319-2.625.376 4.227c.994 11.163-1.563 21.026-7.678 29.67-2.128 3.009-3.336 6.145-3.638 9.397q-2.505.216-5.21.539l-4.194.5 3.24 2.722c8.559 7.188 13.692 15.979 15.451 26.436.608 3.609 1.944 6.664 3.99 9.166a163 163 0 0 0-2.703 3.359l-2.613 3.334 4.206-.378c4-.359 9.26-.051 11.498.31 2.24.361 3.779.718 5.746 1.304 4.35 1.296 8.436 3.352 12.286 6.101 3.006 2.147 6.141 3.362 9.392 3.659q.203 2.305.496 4.774l.499 4.214 2.708-3.256c7.154-8.599 15.903-13.757 26.31-15.525 3.702-.629 6.818-2.035 9.35-4.199q1.702 1.429 3.571 2.906l3.318 2.626-.376-4.227-.033-.38c-.902-11.007 1.666-20.745 7.711-29.29 1.926-2.723 3.098-5.55 3.527-8.472q2.557-.218 5.321-.548l4.194-.502-3.24-2.721c-8.559-7.188-13.692-15.979-15.451-26.436-.626-3.72-2.026-6.85-4.179-9.394a160 160 0 0 0 2.892-3.588l2.613-3.334-4.207.377c-11.109.999-20.926-1.57-29.529-7.715-2.994-2.138-6.115-3.352-9.352-3.655a160 160 0 0 0-.536-5.235m-2.318 99.982.017-.27c3.724 3.119 7.914 4.534 12.524 4.201-4.425 3.53-8.565 5.502-12.455 5.955q-.34-5.535-.086-9.886M57.33 99.55q-2.523.93-5.467 3.072c-.335 7.501 3.059 12.567 10.179 15.508l8.37 3.456-7.688.058a48 48 0 0 1 3.945 2.54c2.24 1.599 4.57 2.571 7.003 2.904q-.47-7.831.241-13.537-2.778-3.381-5.129-8.228c-2.833-5.845-6.46-7.614-11.454-5.773m20.423 12.882q.573-3.431 1.66-5.791c2.236-4.85 6.046-6.176 12.163-4.056q5.181 1.795 9.604 2.191c2.348 2.994 5.449 6.198 9.304 9.622-1.982 1.552-4.359 2.555-7.131 3.026a48 48 0 0 0-5.47 1.26l6.124-6.246-8.35 3.503c-7.007 2.939-12.907 1.839-17.904-3.509m-29.463-6.898-.067.061q-3.339 2.999-7.114 7.328c1.672 1.355 3.721 2.438 6.155 3.25a29.4 29.4 0 0 0 5.882 1.335l.371.049q.343.046.693.087c-3.552-3.09-5.525-7.149-5.92-12.11m57.647-.758c4.746-.473 8.643-2.443 11.631-5.91-.636 5.559-2.141 9.851-4.512 12.927q-4.202-3.721-7.119-7.017M41.094 77.707l-.145.139c-5.137 4.977-6.163 10.838-3.277 17.783l3.485 8.391-6.446-6.381-.418-.418a48 48 0 0 1 1.447 6.142c.449 2.671 1.386 4.977 2.825 6.918 3.497-3.992 6.763-7.191 9.81-9.598.297-2.823 1.008-5.877 2.133-9.154 2.11-6.146.79-9.974-4.036-12.22q-2.215-1.031-5.378-1.602m36.797-29.96q.68-1.473 1.18-3.25 1.492 2.248 2.869 5.089c3.608 7.445 9.127 10.136 15.986 7.607q1.773-.652 3.67-1.776-.528 2.645-1.551 5.624c-2.687 7.828-.679 13.652 5.95 16.737q1.057.493 2.275.892a46 46 0 0 1-4.105 2.26c-7.41 3.626-10.088 9.172-7.571 16.063q.65 1.782 1.767 3.688-2.632-.53-5.597-1.558c-7.79-2.7-13.587-.682-16.657 5.978a22.5 22.5 0 0 0-1.27 3.574q-1.443-2.2-2.779-4.955c-3.608-7.445-9.127-10.136-15.986-7.608q-1.722.635-3.562 1.713.52-2.414 1.443-5.103c2.687-7.828.679-13.652-5.95-16.737a22 22 0 0 0-3.235-1.186q2.238-1.5 5.065-2.882c7.41-3.625 10.088-9.17 7.571-16.062q-.65-1.782-1.767-3.688 2.632.53 5.597 1.558c7.79 2.7 13.587.682 16.657-5.978m35.154 32.045-.082.064q-3.065 2.342-7.202 4.367c-5.817 2.846-7.578 6.491-5.745 11.509q.927 2.542 3.068 5.509c7.209.176 12.103-3.24 14.968-10.244l3.439-8.409.063 8.53a48 48 0 0 1 2.978-4.77q2.078-2.932 2.729-6.085c-5.567.305-10.301.151-14.216-.471m-86.5-2.611.058-.004q5.648-.325 10.03-.01c-3.088 3.735-4.488 7.935-4.157 12.555-3.521-4.457-5.485-8.625-5.931-12.541m94.977-14.054c.356 4.976-1.297 9.465-4.903 13.411q4.692.406 10.909.04c-.226-4.178-2.211-8.648-6.006-13.452m-6.34-19.816.066-.075c1.544 1.992 2.543 4.38 3.012 7.165a49 49 0 0 0 1.07 4.851l-.042-.042-6.446-6.381 3.486 8.39.121.297c2.901 7.233 1.519 13.283-4.375 18.38q-2.628-.548-4.546-1.44c-4.827-2.247-6.147-6.075-4.037-12.221 1.191-3.47 1.918-6.69 2.181-9.65 2.96-2.345 6.127-5.436 9.51-9.274m-79.234 18.54-3.44 8.41-.063-8.532a48 48 0 0 1-2.978 4.771c-1.586 2.242-2.552 4.575-2.887 7.01q7.773-.44 13.408.32c2.253-1.88 5.006-3.617 8.25-5.205 5.817-2.846 7.578-6.491 5.746-11.509q-.929-2.542-3.07-5.509c-7.208-.175-12.101 3.24-14.966 10.244m44.419-35.434-.01-.195c2.422.337 4.744 1.307 6.975 2.9a48 48 0 0 0 4.748 2.993l-8.49.063 8.37 3.457c6.97 2.878 10.369 7.795 10.194 15.038q-2.953 2.151-5.483 3.084c-4.994 1.84-8.621.072-11.454-5.773-1.58-3.26-3.31-6.026-5.18-8.29.499-3.73.606-8.152.33-13.277M40.944 41.055c-2.372 3.077-3.876 7.368-4.512 12.927 2.987-3.467 6.884-5.437 11.63-5.91q-2.916-3.295-7.118-7.017m15.654-7.034.159-.049-.416.42-6.35 6.477 8.35-3.502c6.976-2.926 12.854-1.849 17.837 3.438q-.567 3.179-1.594 5.404c-2.236 4.85-6.046 6.176-12.162 4.056-3.453-1.197-6.658-1.927-9.604-2.191-2.349-2.994-5.45-6.198-9.304-9.622 1.981-1.552 4.358-2.555 7.13-3.026a48 48 0 0 0 5.954-1.405m43.193 2.1c3.45 3 5.411 6.916 5.882 11.686q3.28-2.933 6.984-7.154c-3.062-2.382-7.333-3.894-12.866-4.533m-23.284-9.91.195-.024q.329 5.71.014 10.135c-3.717-3.102-7.897-4.509-12.495-4.177 4.361-3.478 8.445-5.444 12.285-5.935" clip-rule="evenodd"/></g></g><path fill="url(#j)" fill-rule="evenodd" d="m79.386 20.588 1.094.152q3.849.537 7.379 3.061a47 47 0 0 0 4.124 2.638l3.562 1.99-7.424.056 4.183 1.727c7.348 3.035 10.943 8.313 10.759 15.908l-.011.453-.365.266q-3.044 2.22-5.703 3.202c-5.49 2.024-9.576-.02-12.587-6.232-1.549-3.195-3.24-5.9-5.062-8.106l-.255-.309.053-.398q.474-3.54.47-7.964v-.445a97 97 0 0 0-.121-4.204l-.026-.492zm-37.84 15.205-.728-.645-.595.771c-2.489 3.23-4.044 7.682-4.697 13.383l-.336 2.945 1.93-2.24q4.241-4.922 11.032-5.6l1.78-.177-1.19-1.342q-2.963-3.346-7.196-7.095m74.421 2.307-.674-.87-.793.9-.325.368q-1.293 1.455-2.541 2.759l-.717.74-.213.217q-2.924 2.962-5.595 5.078l-.309.244-.035.394c-.256 2.883-.967 6.032-2.135 9.432-2.243 6.532-.791 10.88 4.515 13.35q2.02.939 4.745 1.506l.439.091.34-.294c6.164-5.329 7.686-11.786 4.625-19.415l-.123-.302-1.745-4.2 3.223 3.19.037.037 2.415 2.43-1.05-3.91a48 48 0 0 1-.893-4.17q-.739-4.41-3.191-7.575m4.435 17.562 1.834 2.321c3.895 4.93 5.965 9.572 6.203 13.972l.049.91-.905.053q-6.266.369-11.041-.042l-1.847-.16 1.254-1.371c3.448-3.773 5.002-8.018 4.665-12.727zM38.467 71.805l-1.769-.127c-2.968-.213-6.353-.21-10.146.01l-.058.002-.97.056.146 1.205c.522 4.044 2.553 8.284 6.093 12.764l1.833 2.321-.211-2.956q-.469-6.557 3.949-11.904zm2.787.425-.455-.082-.479.459-.17.166c-5.247 5.192-6.328 11.392-3.32 18.633l1.743 4.195-3.223-3.19-.209-.208-.206-.206-2.593-2.598 1.08 3.516a47 47 0 0 1 1.419 6.025q.71 4.227 2.992 7.313l.672.906.743-.848a103 103 0 0 1 3.494-3.803l.473-.484.143-.146q2.915-2.947 5.58-5.051l.302-.24.04-.384c.29-2.751.986-5.739 2.089-8.951 2.242-6.532.791-10.88-4.515-13.35q-2.331-1.084-5.6-1.672m77.555 19.222-.337 2.945c-.652 5.702-2.208 10.154-4.697 13.382l-.594.771-.728-.644q-4.233-3.749-7.198-7.095l-1.189-1.342 1.78-.178q6.792-.677 11.032-5.598zm-44.196 16.941c-1.803-2.195-3.477-4.879-5.012-8.045-3.01-6.213-7.097-8.256-12.587-6.232q-2.652.98-5.687 3.19l-.356.26-.02.44c-.35 7.857 3.237 13.297 10.743 16.396l4.184 1.728-6.49.048 3.377 1.975a48 48 0 0 1 3.374 2.203c2.362 1.687 4.831 2.712 7.407 3.065l1.1.15-.067-1.112c-.087-1.458-.178-4.788-.178-4.788l-.003-.298q-.042-4.607.417-8.283l.049-.392zm3.223 3.288-1.382-1.158-.127 2.075-.022.404q-.219 4.272.108 9.595l.06.964.955-.111c4.084-.477 8.376-2.527 12.916-6.148l2.31-1.842-2.942.212q-6.544.474-11.876-3.991m.245 2.493a84 84 0 0 0 .07 6.786l.026.528c2.794-.51 5.744-1.835 8.86-3.996-3.2-.254-6.196-1.365-8.956-3.318m-12.192 3.786 6.694-.05q.025 1.69.114 3.498c-1.886-.424-3.716-1.27-5.502-2.546a54 54 0 0 0-1.306-.902m-8.247-22.126c-1.496.552-3.128 1.45-4.886 2.695-.168 6.829 2.968 11.428 9.63 14.179l10.187 4.207q-.015-4.204.387-7.663c-1.805-2.253-3.471-4.957-4.996-8.103-2.627-5.418-5.773-6.992-10.322-5.315m43.618 3.456c-2.87-.258-6.004-.972-9.388-2.145-6.5-2.254-10.828-.796-13.285 4.536q-1.144 2.483-1.733 6.024l-.075.448.31.33c5.238 5.606 11.533 6.825 18.918 3.728l4.175-1.751-5.377 5.483 3.92-1.124a47 47 0 0 1 4.78-1.067c2.924-.497 5.44-1.563 7.539-3.207l.865-.678-.822-.73a103 103 0 0 1-3.464-3.216l-.404-.397-.231-.228q-2.974-2.959-5.093-5.661l-.243-.31zm-52.209-.244.147 1.84q.565 7.105 5.608 11.492l2.23 1.94-2.93-.339a41 41 0 0 1-1.087-.139l-.068-.009-.066-.02a44 44 0 0 0-5.763-1.308l-.075-.012-.07-.024q-3.796-1.264-6.441-3.405l-.74-.599.626-.717q3.636-4.17 6.9-7.143l.293-.265zm51.779 13.363 5.295-5.4q1.37 1.343 2.905 2.734c-1.665 1.092-3.603 1.826-5.827 2.203q-1.2.204-2.373.463m-20.591-9.959q-.964 2.088-1.51 5.107c4.637 4.756 10.025 5.71 16.576 2.963l10.092-4.233q-2.689-2.702-4.691-5.212c-2.916-.299-6.062-1.034-9.428-2.2-5.67-1.966-9.003-.843-11.039 3.575m-37.798 5.764q2.692-3.036 5.157-5.375c.539 3.318 1.817 6.22 3.825 8.673-1.235-.122-2.668-.376-3.943-.806q-2.91-.981-5.039-2.492m73.825-11.333c-2.397 2.056-5.237 3.388-8.489 3.985a85 85 0 0 0 4.749 4.65l.382.346c1.568-2.326 2.689-5.313 3.358-8.981m-79.629 1.754a50 50 0 0 0-.59-2.964l4.47 4.425 1.03 1.021-.405.42q-1.221 1.272-2.483 2.684c-.993-1.611-1.666-3.47-2.022-5.586m4.752-24.517C36.72 78.76 35.79 84.15 38.513 90.7l3.944 9.495q2.62-2.614 5.056-4.57.49-4.184 2.135-8.972c1.956-5.697.838-9.045-3.559-11.09q-1.944-.907-4.7-1.446m71.798.196-.388-.062-.393.305-.316.238c-1.92 1.431-4.166 2.777-6.728 4.03-6.182 3.026-8.216 7.132-6.202 12.648q.978 2.673 3.187 5.731l.264.367.451.01c7.559.185 12.812-3.427 15.832-10.81l1.72-4.204.055 7.459 1.981-3.578a48 48 0 0 1 2.625-4.144c1.458-2.061 2.42-4.204 2.878-6.43l.239-1.163-1.181.064a98 98 0 0 1-4.524.148h-1.276q-4.61-.034-8.224-.61m.1 1.867-.108.081q-3.03 2.257-7.019 4.21c-5.393 2.638-6.959 5.8-5.29 10.37q.824 2.26 2.687 4.915c6.54.017 10.974-3.136 13.651-9.682l3.825-9.32c-2.851-.034-5.438-.23-7.746-.574m12.788.482q-1.909.084-3.683.091l.049 6.496q.645-1.014 1.348-2.007 1.584-2.238 2.286-4.58m-94.502 5.728c-2.156-3.138-3.477-6.11-3.981-8.925q3.964-.194 7.272-.057c-1.937 2.77-3.038 5.774-3.29 8.982m90.851-21.083c-.279 3.555-1.601 6.857-3.944 9.867q3.409.179 7.541-.008l.519-.025c-.363-3.082-1.726-6.355-4.116-9.834m-15.883-12.823q2.473-1.991 5.135-4.66l3.81 9.173.119.291c2.711 6.759 1.496 12.292-3.788 17.04q-2.25-.506-3.908-1.279c-4.397-2.046-5.514-5.394-3.558-11.09q1.743-5.077 2.19-9.475m-55.603-2.367.45.01.266.367q2.208 3.059 3.186 5.731c2.014 5.517-.02 9.622-6.202 12.648-3.18 1.556-5.872 3.254-8.067 5.085l-.307.257-.396-.054q-3.456-.466-7.76-.472h-.253l-.617.003a98 98 0 0 0-4.606.156l-1.105.062.152-1.102c.355-2.578 1.374-5.05 3.047-7.414a48 48 0 0 0 2.625-4.144l1.981-3.579.055 7.46 1.72-4.204c3.02-7.382 8.272-10.995 15.831-10.81M36.791 57.624c2.678-6.546 7.111-9.7 13.652-9.683q1.861 2.656 2.686 4.916c1.67 4.57.103 7.732-5.29 10.37-3.158 1.546-5.87 3.237-8.123 5.07q-3.224-.408-7.113-.436zm-5.234 2.826a50 50 0 0 1-1.349 2.007c-1.264 1.787-2.105 3.619-2.528 5.506a97 97 0 0 1 3.388-.098l.543-.004zm49.435-25.606q.405-3.238.433-7.146l10.189 4.208c6.514 2.69 9.653 7.145 9.636 13.717-1.76 1.247-3.394 2.147-4.892 2.699-4.549 1.677-7.695.104-10.321-5.315-1.539-3.174-3.221-5.898-5.045-8.163m34.176 5.282q-1.266 1.41-2.492 2.68l.804.797 4.216 4.173a52 52 0 0 1-.336-1.796c-.376-2.235-1.105-4.182-2.192-5.854M57.403 30.042l2.589-2.609-3.661 1.137-.518.155a47 47 0 0 1-5.32 1.222c-2.923.496-5.439 1.563-7.538 3.206l-.865.678.822.73a101 101 0 0 1 3.784 3.53l.408.405.218.218q2.774 2.79 4.782 5.35l.243.31.391.035c2.87.257 6.004.972 9.388 2.145 6.501 2.254 10.828.795 13.286-4.537q1.079-2.341 1.664-5.626l.081-.456-.316-.335c-5.225-5.544-11.497-6.738-18.85-3.654l-4.175 1.75 3.175-3.237.207-.21zM41.09 37.836c-1.568 2.327-2.689 5.314-3.358 8.982 2.398-2.056 5.237-3.388 8.489-3.985a86 86 0 0 0-5.13-4.997m7.83-.102 9.772-4.098c6.517-2.734 11.883-1.802 16.504 2.89q-.538 2.77-1.439 4.723c-2.036 4.418-5.368 5.54-11.038 3.575q-5.052-1.752-9.429-2.2-1.881-2.36-4.37-4.89m48.043-7.437 2.93.339c5.675.655 10.106 2.219 13.32 4.719l.767.597-.642.732q-3.73 4.253-7.061 7.232l-1.336 1.194-.176-1.788q-.675-6.824-5.572-11.085zm9.37 11.085c-.594-3.267-1.919-6.12-3.966-8.53 3.651.673 6.624 1.799 8.939 3.374a86 86 0 0 1-4.973 5.156M53.746 31.159q-1.455.34-2.949.593c-2.127.361-3.993 1.048-5.608 2.062l-.218.14a99 99 0 0 1 3.132 2.96l1.24-1.263zm23.868-9.6-.056-.97-1.157.138c-4.039.517-8.272 2.56-12.745 6.127l-2.31 1.843 2.942-.213q6.526-.47 11.847 3.968l1.365 1.14.126-1.779c.213-2.997.209-6.418-.012-10.253m-1.766 1.105c-2.802.506-5.76 1.833-8.883 4 3.193.254 6.183 1.36 8.94 3.306q.136-3.324-.057-7.306m5.578 4.04a97 97 0 0 0-.102-3.95c1.878.425 3.702 1.27 5.48 2.54q.989.705 1.998 1.355z" clip-rule="evenodd"/><mask id="k" width="104" height="104" x="25" y="20" maskUnits="userSpaceOnUse" style="mask-type:luminance"><path fill="#fff" fill-rule="evenodd" d="m79.386 20.588 1.094.152q3.849.537 7.379 3.061a47 47 0 0 0 4.124 2.638l3.562 1.99-7.424.056 4.183 1.727c7.348 3.035 10.943 8.313 10.759 15.908l-.011.453-.365.266q-3.044 2.22-5.703 3.202c-5.49 2.024-9.576-.02-12.587-6.232-1.549-3.195-3.24-5.9-5.062-8.106l-.255-.309.053-.398q.474-3.54.47-7.964v-.445a97 97 0 0 0-.121-4.204l-.026-.492zm-37.84 15.205-.728-.645-.595.771c-2.489 3.23-4.044 7.682-4.697 13.383l-.336 2.945 1.93-2.24q4.241-4.922 11.032-5.6l1.78-.177-1.19-1.342q-2.963-3.346-7.196-7.095m74.421 2.307-.674-.87-.793.9-.325.368q-1.293 1.455-2.541 2.759l-.717.74-.213.217q-2.924 2.962-5.595 5.078l-.309.244-.035.394c-.256 2.883-.967 6.032-2.135 9.432-2.243 6.532-.791 10.88 4.515 13.35q2.02.939 4.745 1.506l.439.091.34-.294c6.164-5.329 7.686-11.786 4.625-19.415l-.123-.302-1.745-4.2 3.223 3.19.037.037 2.415 2.43-1.05-3.91a48 48 0 0 1-.893-4.17q-.739-4.41-3.191-7.575m4.435 17.562 1.834 2.321c3.895 4.93 5.965 9.572 6.203 13.972l.049.91-.905.053q-6.266.369-11.041-.042l-1.847-.16 1.254-1.371c3.448-3.773 5.002-8.018 4.665-12.727zM38.467 71.805l-1.769-.127c-2.968-.213-6.353-.21-10.146.01l-.058.002-.97.056.146 1.205c.522 4.044 2.553 8.284 6.093 12.764l1.833 2.321-.211-2.956q-.469-6.557 3.949-11.904zm2.787.425-.455-.082-.479.459-.17.166c-5.247 5.192-6.328 11.392-3.32 18.633l1.743 4.195-3.223-3.19-.209-.208-.206-.206-2.593-2.598 1.08 3.516a47 47 0 0 1 1.419 6.025q.71 4.227 2.992 7.313l.672.906.743-.848a103 103 0 0 1 3.494-3.803l.473-.484.143-.146q2.915-2.947 5.58-5.051l.302-.24.04-.384c.29-2.751.986-5.739 2.089-8.951 2.242-6.532.791-10.88-4.515-13.35q-2.331-1.084-5.6-1.672m77.555 19.222-.337 2.945c-.652 5.702-2.208 10.154-4.697 13.382l-.594.771-.728-.644q-4.233-3.749-7.198-7.095l-1.189-1.342 1.78-.178q6.792-.677 11.032-5.598zm-44.196 16.941c-1.803-2.195-3.477-4.879-5.012-8.045-3.01-6.213-7.097-8.256-12.587-6.232q-2.652.98-5.687 3.19l-.356.26-.02.44c-.35 7.857 3.237 13.297 10.743 16.396l4.184 1.728-6.49.048 3.377 1.975a48 48 0 0 1 3.374 2.203c2.362 1.687 4.831 2.712 7.407 3.065l1.1.15-.067-1.112c-.087-1.458-.178-4.788-.178-4.788l-.003-.298q-.042-4.607.417-8.283l.049-.392zm3.223 3.288-1.382-1.158-.127 2.075-.022.404q-.219 4.272.108 9.595l.06.964.955-.111c4.084-.477 8.376-2.527 12.916-6.148l2.31-1.842-2.942.212q-6.544.474-11.876-3.991m.245 2.493a84 84 0 0 0 .07 6.786l.026.528c2.794-.51 5.744-1.835 8.86-3.996-3.2-.254-6.196-1.365-8.956-3.318m-12.192 3.786 6.694-.05q.025 1.69.114 3.498c-1.886-.424-3.716-1.27-5.502-2.546a54 54 0 0 0-1.306-.902m-8.247-22.126c-1.496.552-3.128 1.45-4.886 2.695-.168 6.829 2.968 11.428 9.63 14.179l10.187 4.207q-.015-4.204.387-7.663c-1.805-2.253-3.471-4.957-4.996-8.103-2.627-5.418-5.773-6.992-10.322-5.315m43.618 3.456c-2.87-.258-6.004-.972-9.388-2.145-6.5-2.254-10.828-.796-13.285 4.536q-1.144 2.483-1.733 6.024l-.075.448.31.33c5.238 5.606 11.533 6.825 18.918 3.728l4.175-1.751-5.377 5.483 3.92-1.124a47 47 0 0 1 4.78-1.067c2.924-.497 5.44-1.563 7.539-3.207l.865-.678-.822-.73a103 103 0 0 1-3.464-3.216l-.404-.397-.231-.228q-2.974-2.959-5.093-5.661l-.243-.31zm-52.209-.244.147 1.84q.565 7.105 5.608 11.492l2.23 1.94-2.93-.339a41 41 0 0 1-1.087-.139l-.068-.009-.066-.02a44 44 0 0 0-5.763-1.308l-.075-.012-.07-.024q-3.796-1.264-6.441-3.405l-.74-.599.626-.717q3.636-4.17 6.9-7.143l.293-.265zm51.779 13.363 5.295-5.4q1.37 1.343 2.905 2.734c-1.665 1.092-3.603 1.826-5.827 2.203q-1.2.204-2.373.463m-20.591-9.959q-.964 2.088-1.51 5.107c4.637 4.756 10.025 5.71 16.576 2.963l10.092-4.233q-2.689-2.702-4.691-5.212c-2.916-.299-6.062-1.034-9.428-2.2-5.67-1.966-9.003-.843-11.039 3.575m-37.798 5.764q2.692-3.036 5.157-5.375c.539 3.318 1.817 6.22 3.825 8.673-1.235-.122-2.668-.376-3.943-.806q-2.91-.981-5.039-2.492m73.825-11.333c-2.397 2.056-5.237 3.388-8.489 3.985a85 85 0 0 0 4.749 4.65l.382.346c1.568-2.326 2.689-5.313 3.358-8.981m-79.629 1.754a50 50 0 0 0-.59-2.964l4.47 4.425 1.03 1.021-.405.42q-1.221 1.272-2.483 2.684c-.993-1.611-1.666-3.47-2.022-5.586m4.752-24.517C36.72 78.76 35.79 84.15 38.513 90.7l3.944 9.495q2.62-2.614 5.056-4.57.49-4.184 2.135-8.972c1.956-5.697.838-9.045-3.559-11.09q-1.944-.907-4.7-1.446m71.798.196-.388-.062-.393.305-.316.238c-1.92 1.431-4.166 2.777-6.728 4.03-6.182 3.026-8.216 7.132-6.202 12.648q.978 2.673 3.187 5.731l.264.367.451.01c7.559.185 12.812-3.427 15.832-10.81l1.72-4.204.055 7.459 1.981-3.578a48 48 0 0 1 2.625-4.144c1.458-2.061 2.42-4.204 2.878-6.43l.239-1.163-1.181.064a98 98 0 0 1-4.524.148h-1.276q-4.61-.034-8.224-.61m.1 1.867-.108.081q-3.03 2.257-7.019 4.21c-5.393 2.638-6.959 5.8-5.29 10.37q.824 2.26 2.687 4.915c6.54.017 10.974-3.136 13.651-9.682l3.825-9.32c-2.851-.034-5.438-.23-7.746-.574m12.788.482q-1.909.084-3.683.091l.049 6.496q.645-1.014 1.348-2.007 1.584-2.238 2.286-4.58m-94.502 5.728c-2.156-3.138-3.477-6.11-3.981-8.925q3.964-.194 7.272-.057c-1.937 2.77-3.038 5.774-3.29 8.982m90.851-21.083c-.279 3.555-1.601 6.857-3.944 9.867q3.409.179 7.541-.008l.519-.025c-.363-3.082-1.726-6.355-4.116-9.834m-15.883-12.823q2.473-1.991 5.135-4.66l3.81 9.173.119.291c2.711 6.759 1.496 12.292-3.788 17.04q-2.25-.506-3.908-1.279c-4.397-2.046-5.514-5.394-3.558-11.09q1.743-5.077 2.19-9.475m-55.603-2.367.45.01.266.367q2.208 3.059 3.186 5.731c2.014 5.517-.02 9.622-6.202 12.648-3.18 1.556-5.872 3.254-8.067 5.085l-.307.257-.396-.054q-3.456-.466-7.76-.472h-.253l-.617.003a98 98 0 0 0-4.606.156l-1.105.062.152-1.102c.355-2.578 1.374-5.05 3.047-7.414a48 48 0 0 0 2.625-4.144l1.981-3.579.055 7.46 1.72-4.204c3.02-7.382 8.272-10.995 15.831-10.81M36.791 57.624c2.678-6.546 7.111-9.7 13.652-9.683q1.861 2.656 2.686 4.916c1.67 4.57.103 7.732-5.29 10.37-3.158 1.546-5.87 3.237-8.123 5.07q-3.224-.408-7.113-.436zm-5.234 2.826a50 50 0 0 1-1.349 2.007c-1.264 1.787-2.105 3.619-2.528 5.506a97 97 0 0 1 3.388-.098l.543-.004zm49.435-25.606q.405-3.238.433-7.146l10.189 4.208c6.514 2.69 9.653 7.145 9.636 13.717-1.76 1.247-3.394 2.147-4.892 2.699-4.549 1.677-7.695.104-10.321-5.315-1.539-3.174-3.221-5.898-5.045-8.163m34.176 5.282q-1.266 1.41-2.492 2.68l.804.797 4.216 4.173a52 52 0 0 1-.336-1.796c-.376-2.235-1.105-4.182-2.192-5.854M57.403 30.042l2.589-2.609-3.661 1.137-.518.155a47 47 0 0 1-5.32 1.222c-2.923.496-5.439 1.563-7.538 3.206l-.865.678.822.73a101 101 0 0 1 3.784 3.53l.408.405.218.218q2.774 2.79 4.782 5.35l.243.31.391.035c2.87.257 6.004.972 9.388 2.145 6.501 2.254 10.828.795 13.286-4.537q1.079-2.341 1.664-5.626l.081-.456-.316-.335c-5.225-5.544-11.497-6.738-18.85-3.654l-4.175 1.75 3.175-3.237.207-.21zM41.09 37.836c-1.568 2.327-2.689 5.314-3.358 8.982 2.398-2.056 5.237-3.388 8.489-3.985a86 86 0 0 0-5.13-4.997m7.83-.102 9.772-4.098c6.517-2.734 11.883-1.802 16.504 2.89q-.538 2.77-1.439 4.723c-2.036 4.418-5.368 5.54-11.038 3.575q-5.052-1.752-9.429-2.2-1.881-2.36-4.37-4.89m48.043-7.437 2.93.339c5.675.655 10.106 2.219 13.32 4.719l.767.597-.642.732q-3.73 4.253-7.061 7.232l-1.336 1.194-.176-1.788q-.675-6.824-5.572-11.085zm9.37 11.085c-.594-3.267-1.919-6.12-3.966-8.53 3.651.673 6.624 1.799 8.939 3.374a86 86 0 0 1-4.973 5.156M53.746 31.159q-1.455.34-2.949.593c-2.127.361-3.993 1.048-5.608 2.062l-.218.14a99 99 0 0 1 3.132 2.96l1.24-1.263zm23.868-9.6-.056-.97-1.157.138c-4.039.517-8.272 2.56-12.745 6.127l-2.31 1.843 2.942-.213q6.526-.47 11.847 3.968l1.365 1.14.126-1.779c.213-2.997.209-6.418-.012-10.253m-1.766 1.105c-2.802.506-5.76 1.833-8.883 4 3.193.254 6.183 1.36 8.94 3.306q.136-3.324-.057-7.306m5.578 4.04a97 97 0 0 0-.102-3.95c1.878.425 3.702 1.27 5.48 2.54q.989.705 1.998 1.355z" clip-rule="evenodd"/></mask><g fill-rule="evenodd" clip-rule="evenodd" mask="url(#k)"><path fill="#fff" d="m75.348 28.442 2.161 2.418-.282 2.377-13.813-4.595.309-1.341 2.203-1.142 5.536.521z"/><path fill="url(#l)" d="m75.196 23.104 1.44-2.301.873 1.094v9.178l-.793.672-.814-1.777-1.304-3.654z"/><path fill="url(#m)" d="m75.847 22.664.857-1.052 1.078-1.35-4.168.326-10.055 4.404V27.3l.663.27 2.742-.89 3.582-1.129z"/><path fill="url(#n)" d="m76.52 35.148-5.497 1.766-19.65 5.413 1.472 2.613 7.002 1.496 8.74 1.505 6.29-2.01 2.905-8.427z"/><path fill="url(#o)" d="m48.117 37.837 1.41-1.74 1.98-.729 9.146-4.833h4.17l4.924-.23 2.229 1.627 3.984 2.394.22 1.904-.983.296h-3.07l-17.45.98z"/><path fill="url(#p)" d="m49.992 36.293-1.757 1.846-.663-1.846 3.407-3.17 3.876-3.897 2.559-.652.13 1.862z"/><path fill="url(#q)" d="m45.441 33.955-1.383-.922-1.115.7.486 1.275 6.394 7.052 2.985 1.437.484-.874-.102-1.816-4.268-3.073-.804-.82-.775-1.3z"/><path fill="url(#r)" d="m48.586 43.902-1.429-2.634-3.642.796-7.423 3.125-.902 3.732.687 1.674 4.751-1.674z"/><path fill="url(#s)" d="m41.642 36.273-.285 3.998-3.625 6.547-1.3 2.59h-.555v-7.334l2.212-5.404 3.269-1.057z"/><path fill="url(#t)" d="m51.372 46.818-.718 3.362L32.81 69.576l-1.844-.815 2.648-8.883 4.787-10.32 7.038-4.027h4.25z"/><path fill="url(#u)" d="m32.603 56.793.208 1.907-1.583 4.252-4.006 6.624h-1.931l1.444-5.81 5.035-7.227z"/><path fill="url(#v)" d="M32.502 65.612v2.245l-.127.105-1.111.118-.167-.395-.13-4.401.591-2.836.887-3.294.575-.361.144 3.26z"/><path fill="#fff" d="m39.974 67.78.73 1.792-.365.55-13.4-.435-.359-.737 1.101-.989 1.811-.562 2.12.46h.99l3.495-.18z"/><path fill="url(#w)" d="m26.202 72.148 1.391.288 2.442 2.32 1.961 7.635 1.62 2.548-2.026 1.934-6.777-11.13z"/><path fill="url(#x)" d="m36.764 72.309-3.505 1.384-1.67 5.575-.015 3.124.903 2.755 1.158-.588 2.031-8.372s1.677-3.022 1.677-3.107c0-.084-.58-.771-.58-.771"/><path fill="url(#y)" d="m34.863 73.41 1.77-.817.362-.443-2.703-.746-6.404.118-1.343 1.084 1.047.86 2.44 1.29 2.802-.733z"/><path fill="url(#z)" d="M41.33 72.436c0 .223 1.035 3.544 1.035 3.544l.092 24.216-.267.245h-1.33l-2.2-3.017-4.084-11.632-.455-5.218 3.661-6.456s3.549-1.904 3.549-1.682"/><path fill="url(#A)" d="m36.53 96.506-.295-2.718-2.483-1.847v5.866l2.483 7.561 2.33.339.096-1.485-.813-5.175z"/><path fill="url(#B)" d="m34.293 92.647 1.755 3.025 1.193 2.239 4.307 3.207.642-.676-1.083-1.058-3.276-4.332-3.172-2.57z"/><path fill="url(#C)" d="m68.65 116.916 3.15 1.799 2.11-1.252-2.11-3.354-18.1-16.165-1.839-.91-.91.973.91 8.049 7.615 8.548z"/><path fill="url(#D)" d="m74.226 109.11-1.491.749H72L52.75 98.509l-.889-.46v-1.615l3.852-2.154 5.833-1.798 2.342 1.263 2.28 1.71 1.736 1.967 3.089 6.679 2.44 3.597z"/><path fill="url(#E)" d="m65.89 117.962-3.253-.918 2.635-.57 5.139.539 2.172-.097.378 1.495-1.159.304z"/><path fill="url(#F)" d="m78.73 114.923-.542-3.378-1.67-.17-.764 4.247.21 7.521 1.789.885-.43-1.487.865-1.052 1.648-2.945z"/><path fill="url(#G)" d="m100.829 109.969 5.407-1.502.972-3.382-4.481-.404-23.457 1.671-2.49.657-.26 2.143 5.069 3.662 5.817.724h5.249z"/><path fill="url(#H)" d="m101.697 100.001-.616 1.996-1.23.663-17.138 1.441-3.984 3.457-.977.299-.973-2.286 3.525-8.703 2.622-.745 5.924-.774s7.098 1.685 7.307 1.685c.208 0 5.54 2.967 5.54 2.967"/><path fill="url(#I)" d="M108.271 109.97h2.215l.953-.225-5.502-6.442-4.756-3.101-.472.874.472 2.227 4.301 3.049.868 2.199z"/><path fill="url(#J)" d="m101.361 112.127-.736 1.882s-2.321 1.082-2.615.965c-.294-.116-1.303-.965-1.303-.965l7.302-6.146 1.473-1.511.643.657.225.854z"/><path fill="#fff" d="m100.829 112.409-2.945 1.7-.17.628s3.861.449 3.986.449 6.457-2.019 6.532-2.019 2.982-2.159 2.982-2.294-.729-1.05-.729-1.05l-1.456-.079-.73.032-4.508 1.263z"/><path fill="url(#K)" d="m113.213 104.994.389 2.516-1.034.793-5.988-5.688-1.182-3.205 1.626-.536 4.414 3.741z"/><path fill="url(#L)" d="m115.521 97.832.924-3.982 2.364-.346-1.644 11.159-4.11 2.556-.147-1.356.147-4.828z"/><path fill="#556086" d="m116.266 96.88 1.301-2.589-2.625.506-7.66 3.329-1.346 2.075 1.841.665 2.856.505 2.58-1.371z"/><path fill="url(#M)" d="m114.063 76.664-.662-2.412-3.186.966-8.964 5.074-2.474 3.69-.367 4.574 1.462 5.18s1.409 2.313 2.316 3.145c.906.833 1.879.707 1.879.707l2.169-3.852 3.979-11.472z"/><path fill="url(#N)" d="m121.438 79.144.637-2.119-.085-.844-1.515.237-1.993 3.194-7.997 11.84-6.927 4.305-.496.915s1.114.916 1.345.916h3.371c.287 0 7.601-2.725 7.601-2.725s2.189-1.718 2.189-1.992 3.87-13.727 3.87-13.727"/><path fill="url(#O)" d="m122.074 86.651 1.124-5.58-.331-5.854-1.377.302v2.494l-.457 2.413-.254 5.543.658 1.525z"/><path fill="#556086" d="m127.687 75.69-2.105 1.698-3.191-.633-1.359.001-3.437.286h-3.005l-1.378-.86-.288-.964 1.923-.966 10.735.574z"/><path fill="#F0F1F5" d="m126.542 71.143.988.868v.983l-12.184-.684.898-1.646 3.501-.334z"/><path fill="url(#P)" d="m122.512 61.307-.919-2.583h-.492l-4.48 13.239 1.861-.79 2.389-1.264 1.522-3.323.476-3.499z"/><path fill="url(#Q)" d="m111.83 70.03 1.095 1.603-.548.677-4.804-.677-4.346-3.429-2.489-5.1 2.034-9.243 2.9-6.085 1.348.285.844.901z"/><path fill="url(#R)" d="m115.554 38.328-.168 3.543-2.73.933-.976 1.145-2.904 3.667-2.234.868-.87-.475 3.911-6.63 5.803-3.992z"/><path fill="url(#S)" d="M117.222 46.824s2.208 1.966 2.37 2.137c.161.17.579 2.679.579 2.679l-2.146-.463-5.183-6.923-.852-.787.687-.661h.818z"/><path fill="url(#T)" d="M106.658 40.553v3.015l-1.344 1.2-1.89-3.865-4.332-9.9 3.275-.288 3.105 5.047z"/><path fill="url(#U)" d="M112.83 35.762h-2.355l-4.142 5.619-.661 1.85.398.719 7.425-7.495s-.511-.693-.665-.693"/><path fill="#535E84" d="m102.367 32.852-2.577-1.307-.698-1.414 4.549.166s6.05 3.198 6.311 3.198 2.703 2.583 2.703 2.583l-1.349.148-1.931-.148z"/><path fill="url(#V)" d="m79.87 35.763 2.035-.07.287-9.533-.286-4.978-1.715-.23-.707 3.192z"/><path fill="url(#W)" d="M81.426 27.3v.836l.976.704 10.16 4.971 5.076 6.687 3.611 5.124.911.477h.612v-3.93s-1.312-6.052-3.369-8.055-8.283-4.719-8.283-4.719L83.636 27.3z"/><path fill="#fff" d="M87.912 26.289h2.505s2.32.543 2.32.64v1.513l-9.147-.84-2.164.096v-.995l1.182-.544z"/><path fill="#535E84" d="m81.325 22.754-1.454-1.599 1.658-.565 4.998 2.457 5.232 1.384 2.843 3.268-2.522-.158-3.278-.86-3.739-.898z"/><path fill="#fff" d="m101.249 45.622.911.477.359.91-3.42 1.657-3.973 2.51h-5.987L86.046 48.4l-3.056-6.507-2.953-6.775.954-.274h2.52z"/><path fill="url(#X)" d="m115.168 40.125.079-1.463 3.245 1.194 1.26 7.744-.423 3.078-1.633-2.903-1.772-3.358z"/><path fill="url(#Y)" d="m111.991 43.469-.314.358-.163.635 1.982 11.2-1.677 14.668.256.992.609.757 2.989-1.749 3.348-7.006.157-6.245-1.409-5.002-4.926-7.822z"/><path fill="url(#Z)" d="m126.075 76.663 1.185-.974h.876l-3.66 10.475-2.884.29.849-3.205 1.396-3.864z"/><path fill="url(#aa)" d="m87.037 117.493 2.742-.907 1.376-.643-4.784-1.513-8.616-3.055-.526 1.01.812 1.724 1.721 1.988 2.921 1.735z"/><path fill="url(#ab)" d="m73.669 122.512-.973-1.105-.298-2.676.183-.822v-.995L72 111.691l.96-2.44.95-.276.953.132v10.87z"/><path fill="url(#ac)" d="m48.819 100.441-1.481 4.553-4.896 3.219-1.335.135v-2.134l6.231-5.773z"/><path fill="#5C668B" d="m48.29 100.959-.692 1.881-.26.552.951 5.905 3.134 2.215s.407.31 2.786 1.557c2.38 1.248-1.46-3.211-1.46-3.211l-3.22-8.452z"/><path fill="url(#ad)" d="m48.375 96.108-.864-.48-2.744-8.162-3.38-13.347-.294-.987-.234-.473 1.965.07 4-.07 4.655 3.21 1.27 4.289-.888 8.452-2.322 6.586z"/><path fill="url(#ae)" d="m50.915 47.032-.473.909-.349 2.716L39.99 67.493l-.275.802.273.96 1.614.866 5.906-4.226 6.162-3.177 1.217-2.073 1.472-4.602-.63-4.481-2.48-3.212-1.954-1.915z"/><path fill="url(#af)" d="m40.943 36.48.147 1.357.217 1.365 4.059 3.31.855.32 1.841.665.317-.984s-3.414-5.266-3.513-5.266-3.923-1.634-3.923-1.634z"/><path fill="url(#ag)" d="m53.746 31.16 3.011-1.764.48-1.2-6.628.915-6.12 1.305-1.928 1.843.954 1.617 1.456.079 3.408-.73z"/></g><path fill="url(#ah)" fill-rule="evenodd" d="m79.555 12.673-.499-4.214-2.708 3.256c-7.153 8.599-15.903 13.757-26.31 15.525-3.702.629-6.818 2.035-9.35 4.198a161 161 0 0 0-3.57-2.906l-3.319-2.625.376 4.227c.994 11.163-1.563 21.026-7.678 29.67-2.128 3.009-3.336 6.145-3.638 9.397q-2.505.215-5.21.539l-4.194.5 3.24 2.722c8.559 7.188 13.692 15.979 15.451 26.436.608 3.609 1.944 6.664 3.99 9.166a160 160 0 0 0-2.703 3.359l-2.613 3.334 4.206-.378c4-.359 9.26-.051 11.498.31 2.24.361 3.779.717 5.746 1.304 4.35 1.296 8.436 3.352 12.286 6.101 3.006 2.147 6.141 3.362 9.392 3.659q.203 2.305.496 4.774l.499 4.213 2.708-3.255c7.154-8.599 15.903-13.757 26.31-15.525 3.702-.629 6.818-2.036 9.35-4.199q1.702 1.428 3.571 2.906l3.318 2.625-.376-4.226-.033-.38c-.902-11.007 1.666-20.745 7.711-29.29 1.926-2.723 3.098-5.55 3.527-8.472q2.557-.218 5.321-.549l4.194-.5-3.24-2.722c-8.559-7.188-13.692-15.979-15.451-26.436-.626-3.72-2.026-6.85-4.179-9.395a160 160 0 0 0 2.892-3.588l2.613-3.334-4.207.378c-11.109.998-20.926-1.57-29.529-7.715-2.994-2.138-6.115-3.352-9.352-3.655a160 160 0 0 0-.536-5.235m-2.318 99.982.017-.27c3.724 3.119 7.914 4.535 12.524 4.201-4.425 3.53-8.565 5.502-12.455 5.956q-.34-5.536-.086-9.887M57.33 94.975q-2.523.93-5.467 3.072c-.335 7.501 3.059 12.568 10.179 15.508l8.37 3.457-7.688.057a48 48 0 0 1 3.945 2.54c2.24 1.6 4.57 2.571 7.003 2.905-.312-5.223-.234-9.732.241-13.538-1.851-2.252-3.563-4.998-5.129-8.227-2.833-5.846-6.46-7.615-11.454-5.774m20.423 12.882q.573-3.431 1.66-5.791c2.236-4.85 6.046-6.176 12.163-4.056q5.181 1.796 9.604 2.192c2.348 2.994 5.449 6.197 9.304 9.621-1.982 1.552-4.359 2.556-7.131 3.027a48 48 0 0 0-5.47 1.259l6.124-6.245-8.35 3.502c-7.007 2.939-12.907 1.839-17.904-3.509m-29.463-6.898-.067.061q-3.339 2.998-7.114 7.329c1.672 1.354 3.721 2.437 6.155 3.249a29.3 29.3 0 0 0 5.882 1.335l.22.029.151.02h.001q.344.047.692.087c-3.552-3.09-5.525-7.149-5.92-12.11m57.647-.758c4.746-.473 8.643-2.443 11.631-5.91-.636 5.56-2.141 9.851-4.512 12.927q-4.202-3.722-7.119-7.017M41.094 73.132l-.145.139c-5.137 4.977-6.163 10.839-3.277 17.784l3.485 8.39-6.446-6.381-.418-.417a48 48 0 0 1 1.447 6.141c.449 2.671 1.386 4.978 2.825 6.919 3.497-3.993 6.763-7.192 9.81-9.599q.445-4.236 2.133-9.154c2.11-6.146.79-9.974-4.036-12.22q-2.215-1.031-5.378-1.602m36.797-29.96q.68-1.472 1.18-3.25 1.492 2.249 2.869 5.09c3.608 7.444 9.127 10.135 15.986 7.606q1.773-.653 3.67-1.776-.528 2.645-1.551 5.624c-2.687 7.828-.679 13.652 5.95 16.737q1.057.493 2.275.892a46 46 0 0 1-4.105 2.261c-7.41 3.626-10.088 9.171-7.571 16.062q.65 1.782 1.767 3.689-2.632-.531-5.597-1.559c-7.79-2.7-13.587-.682-16.657 5.979a22.5 22.5 0 0 0-1.27 3.573q-1.443-2.198-2.779-4.955C68.45 91.7 62.931 89.01 56.072 91.538q-1.722.634-3.562 1.712.52-2.414 1.443-5.103c2.687-7.827.679-13.652-5.95-16.737a22 22 0 0 0-3.235-1.186q2.238-1.5 5.065-2.882c7.41-3.625 10.088-9.17 7.571-16.062q-.65-1.782-1.767-3.688 2.632.53 5.597 1.558c7.79 2.7 13.587.683 16.657-5.978m35.154 32.045-.082.064q-3.065 2.342-7.202 4.367c-5.817 2.847-7.578 6.492-5.745 11.51q.927 2.541 3.068 5.508c7.209.176 12.103-3.24 14.968-10.243l3.439-8.41.063 8.53a48 48 0 0 1 2.978-4.77q2.078-2.933 2.729-6.084c-5.567.304-10.301.15-14.216-.472m-86.5-2.611.058-.003q5.648-.326 10.03-.01c-3.088 3.735-4.488 7.934-4.157 12.554-3.521-4.457-5.485-8.625-5.931-12.541m94.977-14.054c.356 4.977-1.297 9.466-4.903 13.411q4.692.406 10.909.041c-.226-4.18-2.211-8.648-6.006-13.452m-6.34-19.815.066-.075c1.544 1.991 2.543 4.38 3.012 7.165a49 49 0 0 0 1.07 4.851l-.042-.043-6.446-6.38 3.486 8.39.121.297c2.901 7.233 1.519 13.283-4.375 18.38q-2.628-.549-4.546-1.441c-4.827-2.246-6.147-6.074-4.037-12.22 1.191-3.47 1.918-6.69 2.181-9.65 2.96-2.345 6.127-5.436 9.51-9.274M35.948 57.276l-3.44 8.41-.063-8.532a48 48 0 0 1-2.978 4.771c-1.586 2.242-2.552 4.575-2.887 7.01q7.773-.44 13.408.32c2.253-1.88 5.006-3.617 8.25-5.204 5.817-2.847 7.578-6.492 5.746-11.51q-.929-2.543-3.07-5.508c-7.208-.176-12.101 3.239-14.966 10.243m44.419-35.433-.01-.195c2.422.336 4.744 1.307 6.975 2.9a48 48 0 0 0 4.748 2.993l-8.49.062 8.37 3.457c6.97 2.878 10.369 7.795 10.194 15.039q-2.953 2.15-5.483 3.083c-4.994 1.84-8.621.072-11.454-5.773-1.58-3.26-3.31-6.026-5.18-8.29.499-3.73.606-8.152.33-13.276M40.944 36.48c-2.372 3.076-3.876 7.368-4.512 12.926 2.987-3.467 6.884-5.436 11.63-5.91q-2.916-3.295-7.118-7.017m15.654-7.034.159-.05-.416.42-6.35 6.477 8.35-3.502c6.976-2.926 12.854-1.849 17.837 3.439q-.567 3.178-1.594 5.403c-2.236 4.85-6.046 6.177-12.162 4.056-3.453-1.197-6.658-1.927-9.604-2.191-2.349-2.994-5.45-6.197-9.304-9.622 1.981-1.552 4.358-2.555 7.13-3.026a48 48 0 0 0 5.954-1.404m43.193 2.098c3.45 3.002 5.411 6.917 5.882 11.686q3.28-2.93 6.984-7.153c-3.062-2.382-7.333-3.894-12.866-4.533m-23.284-9.91.195-.023q.329 5.71.014 10.136c-3.717-3.102-7.897-4.51-12.495-4.177 4.361-3.479 8.445-5.444 12.285-5.935" clip-rule="evenodd"/><mask id="ai" width="128" height="128" x="13" y="8" maskUnits="userSpaceOnUse" style="mask-type:luminance"><path fill="#fff" fill-rule="evenodd" d="m79.555 12.673-.499-4.214-2.708 3.256c-7.153 8.599-15.903 13.757-26.31 15.525-3.702.629-6.818 2.035-9.35 4.198a161 161 0 0 0-3.57-2.906l-3.319-2.625.376 4.227c.994 11.163-1.563 21.026-7.678 29.67-2.128 3.009-3.336 6.145-3.638 9.397q-2.505.215-5.21.539l-4.194.5 3.24 2.722c8.559 7.188 13.692 15.979 15.451 26.436.608 3.609 1.944 6.664 3.99 9.166a160 160 0 0 0-2.703 3.359l-2.613 3.334 4.206-.378c4-.359 9.26-.051 11.498.31 2.24.361 3.779.717 5.746 1.304 4.35 1.296 8.436 3.352 12.286 6.101 3.006 2.147 6.141 3.362 9.392 3.659q.203 2.305.496 4.774l.499 4.213 2.708-3.255c7.154-8.599 15.903-13.757 26.31-15.525 3.702-.629 6.818-2.036 9.35-4.199q1.702 1.428 3.571 2.906l3.318 2.625-.376-4.226-.033-.38c-.902-11.007 1.666-20.745 7.711-29.29 1.926-2.723 3.098-5.55 3.527-8.472q2.557-.218 5.321-.549l4.194-.5-3.24-2.722c-8.559-7.188-13.692-15.979-15.451-26.436-.626-3.72-2.026-6.85-4.179-9.395a160 160 0 0 0 2.892-3.588l2.613-3.334-4.207.378c-11.109.998-20.926-1.57-29.529-7.715-2.994-2.138-6.115-3.352-9.352-3.655a160 160 0 0 0-.536-5.235m-2.318 99.982.017-.27c3.724 3.119 7.914 4.535 12.524 4.201-4.425 3.53-8.565 5.502-12.455 5.956q-.34-5.536-.086-9.887M57.33 94.975q-2.523.93-5.467 3.072c-.335 7.501 3.059 12.568 10.179 15.508l8.37 3.457-7.688.057a48 48 0 0 1 3.945 2.54c2.24 1.6 4.57 2.571 7.003 2.905-.312-5.223-.234-9.732.241-13.538-1.851-2.252-3.563-4.998-5.129-8.227-2.833-5.846-6.46-7.615-11.454-5.774m20.423 12.882q.573-3.431 1.66-5.791c2.236-4.85 6.046-6.176 12.163-4.056q5.181 1.796 9.604 2.192c2.348 2.994 5.449 6.197 9.304 9.621-1.982 1.552-4.359 2.556-7.131 3.027a48 48 0 0 0-5.47 1.259l6.124-6.245-8.35 3.502c-7.007 2.939-12.907 1.839-17.904-3.509m-29.463-6.898-.067.061q-3.339 2.998-7.114 7.329c1.672 1.354 3.721 2.437 6.155 3.249a29.3 29.3 0 0 0 5.882 1.335l.22.029.151.02h.001q.344.047.692.087c-3.552-3.09-5.525-7.149-5.92-12.11m57.647-.758c4.746-.473 8.643-2.443 11.631-5.91-.636 5.56-2.141 9.851-4.512 12.927q-4.202-3.722-7.119-7.017M41.094 73.132l-.145.139c-5.137 4.977-6.163 10.839-3.277 17.784l3.485 8.39-6.446-6.381-.418-.417a48 48 0 0 1 1.447 6.141c.449 2.671 1.386 4.978 2.825 6.919 3.497-3.993 6.763-7.192 9.81-9.599q.445-4.236 2.133-9.154c2.11-6.146.79-9.974-4.036-12.22q-2.215-1.031-5.378-1.602m36.797-29.96q.68-1.472 1.18-3.25 1.492 2.249 2.869 5.09c3.608 7.444 9.127 10.135 15.986 7.606q1.773-.653 3.67-1.776-.528 2.645-1.551 5.624c-2.687 7.828-.679 13.652 5.95 16.737q1.057.493 2.275.892a46 46 0 0 1-4.105 2.261c-7.41 3.626-10.088 9.171-7.571 16.062q.65 1.782 1.767 3.689-2.632-.531-5.597-1.559c-7.79-2.7-13.587-.682-16.657 5.979a22.5 22.5 0 0 0-1.27 3.573q-1.443-2.198-2.779-4.955C68.45 91.7 62.931 89.01 56.072 91.538q-1.722.634-3.562 1.712.52-2.414 1.443-5.103c2.687-7.827.679-13.652-5.95-16.737a22 22 0 0 0-3.235-1.186q2.238-1.5 5.065-2.882c7.41-3.625 10.088-9.17 7.571-16.062q-.65-1.782-1.767-3.688 2.632.53 5.597 1.558c7.79 2.7 13.587.683 16.657-5.978m35.154 32.045-.082.064q-3.065 2.342-7.202 4.367c-5.817 2.847-7.578 6.492-5.745 11.51q.927 2.541 3.068 5.508c7.209.176 12.103-3.24 14.968-10.243l3.439-8.41.063 8.53a48 48 0 0 1 2.978-4.77q2.078-2.933 2.729-6.084c-5.567.304-10.301.15-14.216-.472m-86.5-2.611.058-.003q5.648-.326 10.03-.01c-3.088 3.735-4.488 7.934-4.157 12.554-3.521-4.457-5.485-8.625-5.931-12.541m94.977-14.054c.356 4.977-1.297 9.466-4.903 13.411q4.692.406 10.909.041c-.226-4.18-2.211-8.648-6.006-13.452m-6.34-19.815.066-.075c1.544 1.991 2.543 4.38 3.012 7.165a49 49 0 0 0 1.07 4.851l-.042-.043-6.446-6.38 3.486 8.39.121.297c2.901 7.233 1.519 13.283-4.375 18.38q-2.628-.549-4.546-1.441c-4.827-2.246-6.147-6.074-4.037-12.22 1.191-3.47 1.918-6.69 2.181-9.65 2.96-2.345 6.127-5.436 9.51-9.274M35.948 57.276l-3.44 8.41-.063-8.532a48 48 0 0 1-2.978 4.771c-1.586 2.242-2.552 4.575-2.887 7.01q7.773-.44 13.408.32c2.253-1.88 5.006-3.617 8.25-5.204 5.817-2.847 7.578-6.492 5.746-11.51q-.929-2.543-3.07-5.508c-7.208-.176-12.101 3.239-14.966 10.243m44.419-35.433-.01-.195c2.422.336 4.744 1.307 6.975 2.9a48 48 0 0 0 4.748 2.993l-8.49.062 8.37 3.457c6.97 2.878 10.369 7.795 10.194 15.039q-2.953 2.15-5.483 3.083c-4.994 1.84-8.621.072-11.454-5.773-1.58-3.26-3.31-6.026-5.18-8.29.499-3.73.606-8.152.33-13.276M40.944 36.48c-2.372 3.076-3.876 7.368-4.512 12.926 2.987-3.467 6.884-5.436 11.63-5.91q-2.916-3.295-7.118-7.017m15.654-7.034.159-.05-.416.42-6.35 6.477 8.35-3.502c6.976-2.926 12.854-1.849 17.837 3.439q-.567 3.178-1.594 5.403c-2.236 4.85-6.046 6.177-12.162 4.056-3.453-1.197-6.658-1.927-9.604-2.191-2.349-2.994-5.45-6.197-9.304-9.622 1.981-1.552 4.358-2.555 7.13-3.026a48 48 0 0 0 5.954-1.404m43.193 2.098c3.45 3.002 5.411 6.917 5.882 11.686q3.28-2.93 6.984-7.153c-3.062-2.382-7.333-3.894-12.866-4.533m-23.284-9.91.195-.023q.329 5.71.014 10.136c-3.717-3.102-7.897-4.51-12.495-4.177 4.361-3.479 8.445-5.444 12.285-5.935" clip-rule="evenodd"/></mask><g mask="url(#ai)"><g filter="url(#aj)"><path fill="#626F8F" fill-rule="evenodd" d="M16.408 107.461q15.825-11.974 29.381-6.833 13.555 5.14 29.38 6.833-17.9 25.736-29.38 10.933t-29.38-10.933m117.752-.001q-17.9-3.87-29.381 10.933-11.48 14.803-29.38-10.933 15.826-1.692 29.38-6.833 13.556-5.141 29.381 6.833" clip-rule="evenodd"/></g><g filter="url(#ak)"><path fill="#556086" fill-rule="evenodd" d="M77.228 108.235c18.616 0 33.708-15.164 33.708-33.87S95.844 40.497 77.228 40.497c-18.617 0-33.708 15.164-33.708 33.87s15.091 33.869 33.708 33.869" clip-rule="evenodd"/></g></g><path fill="url(#al)" fill-rule="evenodd" d="M77.228 105.948c18.616 0 33.708-15.164 33.708-33.87S95.844 38.21 77.228 38.21c-18.617 0-33.708 15.164-33.708 33.87s15.091 33.869 33.708 33.869" clip-rule="evenodd"/><path fill="url(#am)" fill-rule="evenodd" d="M77.229 105.033c18.113 0 32.797-14.754 32.797-32.954S95.342 39.125 77.229 39.125c-18.114 0-32.797 14.754-32.797 32.954s14.683 32.954 32.797 32.954" clip-rule="evenodd"/><path fill="url(#an)" fill-rule="evenodd" d="M77.227 101.37c16.101 0 29.153-13.115 29.153-29.292 0-16.178-13.052-29.293-29.153-29.293S48.074 55.9 48.074 72.078s13.053 29.292 29.153 29.292" clip-rule="evenodd"/><path fill="#7C86A1" d="m71.169 76.406 2.493-7.165h-1.117v-.272h2.192v.272h-.673l-3.454 9.902h-1.204l-3.654-9.902h-.659v-.272h4.686v.272h-1.017zm4.006-7.437h4.37v.272h-.787v9.487h.788V79h-4.37v-.272h.787V69.24h-.788zm4.95 0h4.214q2.163 0 3.224.63 1.06.617 1.06 2.222 0 1.776-1.29 2.45-1.203.615-3.367.616h-.114v3.84h1.79V79h-5.516v-.272h.931V69.24h-.931zm3.727.272v5.374h.3q.86 0 1.19-.587.33-.589.33-1.906v-.688q0-1.218-.316-1.706-.3-.486-1.118-.487z"/><path fill="url(#ao)" fill-rule="evenodd" d="M78.895 61.915c1.467-1.83 2.398-4.382 2.792-7.688-1.868 2.083-4.31 3.257-7.288 3.523q1.79 1.996 4.42 4.257zm-12.608-3.749c2.31 2.388 3.698 4.722 4.19 7.018l.024.118q-3.406.63-6.075.773c1.668-2.494 2.297-5.14 1.861-7.909m28.098 5.691c-2.786-.147-5.232-1.315-7.312-3.473q-.416 2.653-.51 6.13l.119.002c2.338-.006 4.898-.885 7.703-2.659m.377 16.05c-1.6-2.298-2.19-4.953-1.778-7.929q-2.337 1.305-5.123 3.37l.073.095c1.444 1.848 3.71 3.334 6.828 4.463M72.915 81.25q1.378 3.192 2.116 5.773c-2.793-1.073-5.5-1.093-8.088-.043 1.797-2.798 3.747-4.682 5.864-5.68zm8.859.684q3.352.875 5.83 1.88c-2.56 1.55-4.243 3.682-5.013 6.377-1.088-3.145-1.365-5.85-.844-8.14zm-14.007-8.16.107.053q-1.603 3.085-3.134 5.286c-.928-2.856-2.616-4.983-5.056-6.343 3.294-.358 5.979-.02 8.083 1.004" clip-rule="evenodd"/><path fill="url(#ap)" fill-rule="evenodd" d="M17.908 102.195s17.9-3.87 29.381 10.934c11.48 14.803 29.38-10.934 29.38-10.934s-15.825-1.691-29.38-6.832-29.38 6.832-29.38 6.832" clip-rule="evenodd"/><mask id="aq" width="60" height="24" x="17" y="94" maskUnits="userSpaceOnUse" style="mask-type:luminance"><path fill="#fff" fill-rule="evenodd" d="M17.908 102.195s17.9-3.87 29.381 10.934c11.48 14.803 29.38-10.934 29.38-10.934s-15.825-1.691-29.38-6.832-29.38 6.832-29.38 6.832" clip-rule="evenodd"/></mask><g fill-rule="evenodd" clip-rule="evenodd" mask="url(#aq)"><path fill="url(#ar)" d="M17.908 102.196s17.098-5.428 27.449 8.316 2.138 17.179.738 16.807-28.187-25.123-28.187-25.123"/><path fill="#fff" d="M17.909 102.195s20.112-8.702 32.612 0 25.234 0 25.234 0L70.59 87.253s-47.098-8.492-47.098-8.234c0 .26-13.917 13.15-13.917 13.15z"/></g><path fill="url(#as)" fill-rule="evenodd" d="M136.076 102.195s-17.9-3.87-29.381 10.934c-11.48 14.803-29.38-10.934-29.38-10.934s15.825-1.691 29.38-6.832 29.381 6.832 29.381 6.832" clip-rule="evenodd"/><mask id="at" width="60" height="24" x="77" y="94" maskUnits="userSpaceOnUse" style="mask-type:luminance"><path fill="#fff" fill-rule="evenodd" d="M136.076 102.195s-17.9-3.87-29.381 10.934c-11.48 14.803-29.38-10.934-29.38-10.934s15.825-1.691 29.38-6.832 29.381 6.832 29.381 6.832" clip-rule="evenodd"/></mask><g fill-rule="evenodd" clip-rule="evenodd" mask="url(#at)"><path fill="url(#au)" d="M136.076 102.196s-17.097-5.428-27.449 8.316-2.138 17.179-.737 16.807 28.186-25.123 28.186-25.123"/><path fill="#fff" d="M136.076 102.195s-20.113-8.702-32.612 0-25.234 0-25.234 0l5.163-14.942s47.098-8.492 47.098-8.234c0 .26 13.917 13.15 13.917 13.15z"/></g><path fill="url(#av)" stroke="url(#aw)" stroke-width="1.416" d="m69.491 103.041.155-.076c1.153-.561 2.025-1.313 2.483-2.274.43-.898.455-1.893.135-2.921l.113.038c1.213.418 2.36.502 3.364.147.897-.318 1.596-.956 2.094-1.843q.04.077.077.156c.562 1.153 1.314 2.023 2.276 2.481.9.428 1.895.454 2.924.134l-.038.111c-.418 1.212-.503 2.359-.147 3.363.289.812.841 1.462 1.604 1.947-1.111.557-1.951 1.295-2.399 2.232-.428.899-.455 1.893-.134 2.922l-.113-.039c-1.213-.418-2.36-.502-3.365-.146-.917.324-1.627.985-2.127 1.905l-.043-.088c-.562-1.153-1.314-2.023-2.276-2.481-.885-.421-1.863-.453-2.875-.149.409-1.199.488-2.334.135-3.328-.317-.896-.956-1.594-1.843-2.091Z"/><path fill="url(#ax)" fill-rule="evenodd" d="M77.22 104.117c2.39 0 4.327-.454 4.327-2.247s-1.937-3.245-4.327-3.245-4.327 1.453-4.327 3.245 1.937 2.247 4.327 2.247" clip-rule="evenodd"/><g filter="url(#ay)"><path fill="#fff" fill-rule="evenodd" d="M77.903 99.54a2.74 2.74 0 0 0 2.733-2.747 2.74 2.74 0 0 0-2.733-2.746 2.74 2.74 0 0 0-2.733 2.746 2.74 2.74 0 0 0 2.733 2.746" clip-rule="evenodd"/></g></g><defs><linearGradient id="c" x1="46.539" x2="46.539" y1="52.88" y2="114.551" gradientUnits="userSpaceOnUse"><stop stop-color="#fff"/><stop offset="1" stop-color="#8790B1"/></linearGradient><linearGradient id="e" x1="35.777" x2="35.777" y1="30.426" y2="113.726" gradientUnits="userSpaceOnUse"><stop stop-color="#E2E4EF"/><stop offset="1" stop-color="#687591"/></linearGradient><linearGradient id="f" x1="47.515" x2="47.515" y1="35.918" y2="95.633" gradientUnits="userSpaceOnUse"><stop stop-color="#5A658A"/><stop offset=".907" stop-color="#fff"/><stop offset="1" stop-color="#fff"/></linearGradient><linearGradient id="g" x1="42.154" x2="42.154" y1="36.834" y2="107.319" gradientUnits="userSpaceOnUse"><stop stop-color="#E2E4EF"/><stop offset="1" stop-color="#6C7796"/></linearGradient><linearGradient id="h" x1="42.154" x2="42.154" y1="36.834" y2="107.319" gradientUnits="userSpaceOnUse"><stop stop-color="#FAE8C3"/><stop offset="1" stop-color="#F3CD90"/></linearGradient><linearGradient id="j" x1="25.523" x2="25.523" y1="20.588" y2="123.571" gradientUnits="userSpaceOnUse"><stop stop-color="#8992B3"/><stop offset="1" stop-color="#F9F9FB"/></linearGradient><linearGradient id="l" x1="76.633" x2="75.702" y1="22.943" y2="22.943" gradientUnits="userSpaceOnUse"><stop stop-color="#BFC7DD"/><stop offset="1" stop-color="#8B96B9"/></linearGradient><linearGradient id="m" x1="71.177" x2="73.795" y1="28.8" y2="22.211" gradientUnits="userSpaceOnUse"><stop stop-color="#8B97BA"/><stop offset="1" stop-color="#535E84"/></linearGradient><linearGradient id="n" x1="60.299" x2="72.261" y1="48.464" y2="33.449" gradientUnits="userSpaceOnUse"><stop stop-color="#D8DDEA"/><stop offset=".276" stop-color="#fff"/><stop offset=".8" stop-color="#fff"/><stop offset="1" stop-color="#D8DDEA"/></linearGradient><linearGradient id="o" x1="71.514" x2="58.315" y1="32.04" y2="45.28" gradientUnits="userSpaceOnUse"><stop stop-color="#818DB0"/><stop offset=".379" stop-color="#535E84"/><stop offset="1" stop-color="#818DB0"/></linearGradient><linearGradient id="p" x1="51.84" x2="45.261" y1="26.646" y2="33.748" gradientUnits="userSpaceOnUse"><stop stop-color="#D3D9E8"/><stop offset="1" stop-color="#F0F2F7"/></linearGradient><linearGradient id="q" x1="38.94" x2="47.566" y1="37.955" y2="46.608" gradientUnits="userSpaceOnUse"><stop stop-color="#BBC4DB"/><stop offset="1" stop-color="#fff"/></linearGradient><linearGradient id="r" x1="38.278" x2="36.198" y1="42.38" y2="47.705" gradientUnits="userSpaceOnUse"><stop stop-color="#fff"/><stop offset="1" stop-color="#DCE2F5"/></linearGradient><linearGradient id="s" x1="39.521" x2="33.606" y1="33.482" y2="35.473" gradientUnits="userSpaceOnUse"><stop stop-color="#535E84"/><stop offset="1" stop-color="#C2C9DF"/></linearGradient><linearGradient id="t" x1="41.963" x2="20.896" y1="36.586" y2="53.634" gradientUnits="userSpaceOnUse"><stop offset="0" stop-color="#757FA0"/><stop offset=".287" stop-color="#535E84"/><stop offset="1" stop-color="#D2D9ED"/></linearGradient><linearGradient id="u" x1="26.39" x2="22.125" y1="59.151" y2="64.707" gradientUnits="userSpaceOnUse"><stop stop-color="#B9C2D9"/><stop offset="1" stop-color="#838FB2"/></linearGradient><linearGradient id="v" x1="32.499" x2="31.526" y1="60.367" y2="60.367" gradientUnits="userSpaceOnUse"><stop stop-color="#8B97BA"/><stop offset="1" stop-color="#535E84"/></linearGradient><linearGradient id="w" x1="23.206" x2="32.499" y1="77.946" y2="84.742" gradientUnits="userSpaceOnUse"><stop stop-color="#A2ABC9"/><stop offset=".571" stop-color="#fff"/><stop offset="1" stop-color="#DEE1EB"/></linearGradient><linearGradient id="x" x1="33.151" x2="25.197" y1="69.457" y2="75.058" gradientUnits="userSpaceOnUse"><stop stop-color="#fff"/><stop offset="1" stop-color="#929CBC"/></linearGradient><linearGradient id="y" x1="30.339" x2="30.339" y1="72.447" y2="73.365" gradientUnits="userSpaceOnUse"><stop stop-color="#959FBF"/><stop offset="1" stop-color="#5C668B"/></linearGradient><linearGradient id="z" x1="34.371" x2="49.005" y1="77.691" y2="88.556" gradientUnits="userSpaceOnUse"><stop stop-color="#9198B4"/><stop offset="1" stop-color="#D9DDEC"/></linearGradient><linearGradient id="A" x1="36.206" x2="37.893" y1="104.231" y2="104.231" gradientUnits="userSpaceOnUse"><stop stop-color="#D8DCEA"/><stop offset="1" stop-color="#95A0BF"/></linearGradient><linearGradient id="B" x1="34.293" x2="34.293" y1="92.482" y2="101.118" gradientUnits="userSpaceOnUse"><stop stop-color="#959FBF"/><stop offset="1" stop-color="#5C668B"/></linearGradient><linearGradient id="C" x1="45.62" x2="61.29" y1="110.337" y2="124.649" gradientUnits="userSpaceOnUse"><stop stop-color="#D9DCE6"/><stop offset="1" stop-color="#fff"/></linearGradient><linearGradient id="D" x1="50.241" x2="61.098" y1="102.044" y2="117.494" gradientUnits="userSpaceOnUse"><stop stop-color="#5C668B"/><stop offset="1" stop-color="#959DB7"/></linearGradient><linearGradient id="E" x1="65.55" x2="65.55" y1="116.961" y2="117.938" gradientUnits="userSpaceOnUse"><stop stop-color="#919CBE"/><stop offset="1" stop-color="#586389"/></linearGradient><linearGradient id="F" x1="79.551" x2="76.596" y1="121.054" y2="113.315" gradientUnits="userSpaceOnUse"><stop stop-color="#B2BBD4"/><stop offset="1" stop-color="#7A86A9"/><stop offset="1" stop-color="#7A86A9"/></linearGradient><linearGradient id="G" x1="91.086" x2="92.272" y1="115.726" y2="108.067" gradientUnits="userSpaceOnUse"><stop stop-color="#D3D9E7"/><stop offset="1" stop-color="#fff"/></linearGradient><linearGradient id="H" x1="83.864" x2="100.744" y1="114.175" y2="99.198" gradientUnits="userSpaceOnUse"><stop stop-color="#CDD4E5"/><stop offset=".227" stop-color="#556086"/><stop offset=".637" stop-color="#697395"/><stop offset="1" stop-color="#CCD3E4"/></linearGradient><linearGradient id="I" x1="97.508" x2="103.99" y1="104.744" y2="112.602" gradientUnits="userSpaceOnUse"><stop stop-color="#848FB2"/><stop offset="1" stop-color="#556086"/></linearGradient><linearGradient id="J" x1="96.707" x2="96.707" y1="106.352" y2="114.986" gradientUnits="userSpaceOnUse"><stop stop-color="#8E99BB"/><stop offset="1" stop-color="#556086"/></linearGradient><linearGradient id="K" x1="107.217" x2="111.675" y1="104.812" y2="107.908" gradientUnits="userSpaceOnUse"><stop stop-color="#E8ECF3"/><stop offset="1" stop-color="#CDD4E4"/></linearGradient><linearGradient id="L" x1="117.137" x2="121.155" y1="104.368" y2="100.069" gradientUnits="userSpaceOnUse"><stop stop-color="#F3F4F7"/><stop offset="1" stop-color="#E4E5ED"/></linearGradient><linearGradient id="M" x1="101.395" x2="93.188" y1="75.431" y2="89.417" gradientUnits="userSpaceOnUse"><stop stop-color="#9EA9C6"/><stop offset="1" stop-color="#CDD4E5"/></linearGradient><linearGradient id="N" x1="111.045" x2="99.025" y1="72.358" y2="88.882" gradientUnits="userSpaceOnUse"><stop stop-color="#9EA9C6"/><stop offset="1" stop-color="#fff"/></linearGradient><linearGradient id="O" x1="120.779" x2="120.779" y1="75.217" y2="87.494" gradientUnits="userSpaceOnUse"><stop stop-color="#7480A4"/><stop offset="1" stop-color="#ACB7D1"/></linearGradient><linearGradient id="P" x1="119.564" x2="113.621" y1="59.438" y2="63.594" gradientUnits="userSpaceOnUse"><stop stop-color="#8B97BA"/><stop offset="1" stop-color="#535E84"/></linearGradient><linearGradient id="Q" x1="101.348" x2="106.434" y1="50.793" y2="66.18" gradientUnits="userSpaceOnUse"><stop stop-color="#fff"/><stop offset=".662" stop-color="#BDC2D8"/><stop offset="1" stop-color="#F0F2F6"/></linearGradient><linearGradient id="R" x1="108.994" x2="103.49" y1="39.622" y2="44.684" gradientUnits="userSpaceOnUse"><stop stop-color="#535E84"/><stop offset="1" stop-color="#98A0BD"/></linearGradient><linearGradient id="S" x1="111.766" x2="116.501" y1="46.809" y2="51.291" gradientUnits="userSpaceOnUse"><stop stop-color="#fff"/><stop offset="1" stop-color="#9FA6C1"/></linearGradient><linearGradient id="T" x1="100.201" x2="106.652" y1="36.753" y2="41.248" gradientUnits="userSpaceOnUse"><stop stop-color="#fff"/><stop offset="1" stop-color="#979FBC"/></linearGradient><linearGradient id="U" x1="106.687" x2="103.924" y1="34.948" y2="40.302" gradientUnits="userSpaceOnUse"><stop stop-color="#979FBC"/><stop offset="1" stop-color="#fff"/></linearGradient><linearGradient id="V" x1="79.484" x2="79.484" y1="20.952" y2="35.763" gradientUnits="userSpaceOnUse"><stop stop-color="#C6CBDE"/><stop offset="1" stop-color="#949CBA"/></linearGradient><linearGradient id="W" x1="87.898" x2="92.556" y1="34.144" y2="48.664" gradientUnits="userSpaceOnUse"><stop stop-color="#535E84"/><stop offset="1" stop-color="#A6ADC6"/></linearGradient><linearGradient id="X" x1="115.168" x2="115.168" y1="38.662" y2="50.678" gradientUnits="userSpaceOnUse"><stop stop-color="#B5BACF"/><stop offset="1" stop-color="#C0C5D6"/></linearGradient><linearGradient id="Y" x1="112.517" x2="123.779" y1="46.202" y2="57.859" gradientUnits="userSpaceOnUse"><stop stop-color="#7780A2"/><stop offset="1" stop-color="#F0F1F5"/></linearGradient><linearGradient id="Z" x1="125.472" x2="132.068" y1="87.479" y2="82.632" gradientUnits="userSpaceOnUse"><stop stop-color="#fff"/><stop offset="1" stop-color="#BDC2D5"/></linearGradient><linearGradient id="aa" x1="88.904" x2="86.095" y1="115.273" y2="110.868" gradientUnits="userSpaceOnUse"><stop stop-color="#919CBE"/><stop offset="1" stop-color="#586389"/></linearGradient><linearGradient id="ab" x1="72.027" x2="72.027" y1="109.233" y2="122.512" gradientUnits="userSpaceOnUse"><stop stop-color="#E1E3EC"/><stop offset="1" stop-color="#8890AE"/></linearGradient><linearGradient id="ac" x1="43.973" x2="45.091" y1="104.953" y2="106.128" gradientUnits="userSpaceOnUse"><stop stop-color="#959FBF"/><stop offset="1" stop-color="#5C668B"/></linearGradient><linearGradient id="ad" x1="52.98" x2="44.173" y1="92.877" y2="75.685" gradientUnits="userSpaceOnUse"><stop stop-color="#959FBF"/><stop offset=".451" stop-color="#DBDFED"/><stop offset="1" stop-color="#5C668B"/></linearGradient><linearGradient id="ae" x1="43.715" x2="27.445" y1="40.229" y2="55.439" gradientUnits="userSpaceOnUse"><stop stop-color="#535E84"/><stop offset=".545" stop-color="#E9EEFF"/><stop offset=".763" stop-color="#fff"/><stop offset="1" stop-color="#BFC8E0"/></linearGradient><linearGradient id="af" x1="44.521" x2="43.797" y1="39.515" y2="40.163" gradientUnits="userSpaceOnUse"><stop stop-color="#8B97BA"/><stop offset="1" stop-color="#535E84"/></linearGradient><linearGradient id="ag" x1="48.298" x2="51.507" y1="35.483" y2="28.918" gradientUnits="userSpaceOnUse"><stop stop-color="#8B97BA"/><stop offset="1" stop-color="#535E84"/></linearGradient><linearGradient id="ah" x1="18.399" x2="18.399" y1="18.324" y2="135.24" gradientUnits="userSpaceOnUse"><stop stop-color="#FDFDFE"/><stop offset="1" stop-color="#A4ABC3"/></linearGradient><linearGradient id="al" x1="44.872" x2="44.872" y1="40.927" y2="105.948" gradientUnits="userSpaceOnUse"><stop stop-color="#FBFBFC"/><stop offset="1" stop-color="#EBBA68"/></linearGradient><linearGradient id="am" x1="44.432" x2="44.432" y1="39.125" y2="105.033" gradientUnits="userSpaceOnUse"><stop stop-color="#FFFCF0"/><stop offset="1" stop-color="#F6DDB1"/></linearGradient><linearGradient id="an" x1="48.074" x2="48.074" y1="42.785" y2="101.37" gradientUnits="userSpaceOnUse"><stop stop-color="#fff"/><stop offset="1" stop-color="#A7AEC5"/></linearGradient><linearGradient id="ao" x1="61.534" x2="61.534" y1="58.022" y2="90.192" gradientUnits="userSpaceOnUse"><stop stop-color="#fff"/><stop offset=".392" stop-color="#D5D9E4"/><stop offset=".618" stop-color="#EDF1FD"/><stop offset="1" stop-color="#949DBA"/></linearGradient><linearGradient id="ap" x1="9.786" x2="24.442" y1="106.621" y2="136.702" gradientUnits="userSpaceOnUse"><stop stop-color="#FBEDD0"/><stop offset="1" stop-color="#EFC47E"/></linearGradient><linearGradient id="ar" x1="17.908" x2="17.908" y1="100.659" y2="127.346" gradientUnits="userSpaceOnUse"><stop stop-color="#F0CA8B"/><stop offset="1" stop-color="#7A7A7A"/></linearGradient><linearGradient id="as" x1="144.198" x2="129.543" y1="106.621" y2="136.702" gradientUnits="userSpaceOnUse"><stop stop-color="#FBEDD0"/><stop offset="1" stop-color="#EFC47E"/></linearGradient><linearGradient id="au" x1="136.076" x2="136.076" y1="100.659" y2="127.346" gradientUnits="userSpaceOnUse"><stop stop-color="#F0CA8B"/><stop offset="1" stop-color="#7A7A7A"/></linearGradient><linearGradient id="av" x1="67.883" x2="67.883" y1="94.506" y2="112.814" gradientUnits="userSpaceOnUse"><stop stop-color="#fff"/><stop offset="1" stop-color="#F4D6A3"/></linearGradient><linearGradient id="ax" x1="72.893" x2="72.893" y1="98.625" y2="104.117" gradientUnits="userSpaceOnUse"><stop stop-color="#fff"/><stop offset="1" stop-color="#fff" stop-opacity=".324"/></linearGradient><filter id="b" width="154.129" height="154.129" x="-.065" y=".161" color-interpolation-filters="sRGB" filterUnits="userSpaceOnUse"><feFlood flood-opacity="0" result="BackgroundImageFix"/><feColorMatrix in="SourceAlpha" result="hardAlpha" values="0 0 0 0 0 0 0 0 0 0 0 0 0 0 0 0 0 0 127 0"/><feOffset dy="5.226"/><feGaussianBlur stdDeviation="6.532"/><feColorMatrix values="0 0 0 0 0.327691 0 0 0 0 0.416536 0 0 0 0 0.520833 0 0 0 0.4 0"/><feBlend in2="BackgroundImageFix" result="effect1_dropShadow_9093_2743"/><feBlend in="SourceGraphic" in2="effect1_dropShadow_9093_2743" result="shape"/></filter><filter id="i" width="142.485" height="142.178" x="5.757" y="5.336" color-interpolation-filters="sRGB" filterUnits="userSpaceOnUse"><feFlood flood-opacity="0" result="BackgroundImageFix"/><feBlend in="SourceGraphic" in2="BackgroundImageFix" result="shape"/><feGaussianBlur result="effect1_foregroundBlur_9093_2743" stdDeviation="3.849"/></filter><filter id="aj" width="136.997" height="43.962" x="6.786" y="89.46" color-interpolation-filters="sRGB" filterUnits="userSpaceOnUse"><feFlood flood-opacity="0" result="BackgroundImageFix"/><feBlend in="SourceGraphic" in2="BackgroundImageFix" result="shape"/><feGaussianBlur result="effect1_foregroundBlur_9093_2743" stdDeviation="4.811"/></filter><filter id="ak" width="105.907" height="106.23" x="24.274" y="21.251" color-interpolation-filters="sRGB" filterUnits="userSpaceOnUse"><feFlood flood-opacity="0" result="BackgroundImageFix"/><feBlend in="SourceGraphic" in2="BackgroundImageFix" result="shape"/><feGaussianBlur result="effect1_foregroundBlur_9093_2743" stdDeviation="9.623"/></filter><filter id="ay" width="20.862" height="20.889" x="67.472" y="86.349" color-interpolation-filters="sRGB" filterUnits="userSpaceOnUse"><feFlood flood-opacity="0" result="BackgroundImageFix"/><feBlend in="SourceGraphic" in2="BackgroundImageFix" result="shape"/><feGaussianBlur result="effect1_foregroundBlur_9093_2743" stdDeviation="3.849"/></filter><radialGradient id="aw" cx="0" cy="0" r="1" gradientTransform="matrix(9.11032 0 0 9.15391 76.993 103.66)" gradientUnits="userSpaceOnUse"><stop offset=".032" stop-color="#EEBD6E"/><stop offset=".096" stop-color="#FFF2DE"/><stop offset=".159" stop-color="#F5D29A"/><stop offset=".206" stop-color="#E3B05B"/><stop offset=".258" stop-color="#F6D8A7"/><stop offset=".307" stop-color="#EEC177"/><stop offset=".364" stop-color="#EEC178"/><stop offset=".415" stop-color="#FEEFD9"/><stop offset=".475" stop-color="#EFC27A"/><stop offset=".534" stop-color="#fff"/><stop offset=".58" stop-color="#EEC37C"/><stop offset=".637" stop-color="#fff"/><stop offset=".657" stop-color="#fff"/><stop offset=".75" stop-color="#fff"/><stop offset=".86" stop-color="#fff"/><stop offset=".932" stop-color="#EDBF72"/><stop offset=".973" stop-color="#FFF4E3"/></radialGradient><clipPath id="a"><path fill="#fff" d="M13 8h128v128H13z"/></clipPath></defs></svg>