<svg xmlns="http://www.w3.org/2000/svg" width="151" height="151" fill="none"><g fill="#10375C" stroke="#0C3052" filter="url(#a)"><path d="M129.5 72.5c0 29.823-24.177 54-54 54s-54-24.177-54-54 24.177-54 54-54 54 24.177 54 54Z"/><path d="M75.5 126.5c29.823 0 54-24.177 54-54s-24.177-54-54-54-54 24.177-54 54 24.177 54 54 54Z"/></g><path fill="#fff" fill-rule="evenodd" d="M54.75 66.92v12.16c0 5.735 0 8.6 1.805 10.383 1.638 1.617 4.185 1.765 8.99 1.78l-.038-.263c-.287-2.11-.287-4.79-.287-8.118v-.132c0-1.008.828-1.825 1.85-1.825 1.02 0 1.848.817 1.848 1.825 0 3.49.002 5.925.252 7.763.245 1.785.688 2.732 1.37 3.404.682.673 1.64 1.113 3.447 1.35 1.86.25 4.328.253 7.866.253h2.462c3.538 0 6.002-.005 7.865-.25 1.807-.24 2.765-.68 3.445-1.353.683-.675 1.127-1.62 1.37-3.404.25-1.835.255-4.273.255-7.763V63.27c0-3.492-.005-5.925-.255-7.763-.243-1.785-.687-2.732-1.368-3.404-.682-.675-1.64-1.113-3.45-1.35-1.857-.253-4.322-.253-7.86-.253h-2.462c-3.538 0-6.005.005-7.865.25-1.807.24-2.765.68-3.447 1.352-.683.676-1.126 1.62-1.37 3.406-.25 1.834-.253 4.27-.253 7.762 0 1.008-.828 1.825-1.85 1.825a1.837 1.837 0 0 1-1.847-1.825v-.133c0-3.325 0-6.007.287-8.117l.037-.263c-4.804.016-7.35.163-8.99 1.78-1.805 1.783-1.807 4.65-1.807 10.383m24.715 13.45 6.16-6.08a1.81 1.81 0 0 0 0-2.58l-6.16-6.08a1.865 1.865 0 0 0-2.612 0 1.81 1.81 0 0 0 0 2.58l3.005 2.965H62.142A1.835 1.835 0 0 0 60.293 73c0 1.007.828 1.825 1.85 1.825h17.713L76.85 77.79a1.81 1.81 0 0 0 0 2.58 1.865 1.865 0 0 0 2.615 0" clip-rule="evenodd"/><defs><filter id="a" width="137" height="137" x="7" y="7" color-interpolation-filters="sRGB" filterUnits="userSpaceOnUse"><feFlood flood-opacity="0" result="BackgroundImageFix"/><feColorMatrix in="SourceAlpha" result="hardAlpha" values="0 0 0 0 0 0 0 0 0 0 0 0 0 0 0 0 0 0 127 0"/><feOffset dy="3"/><feGaussianBlur stdDeviation="7"/><feColorMatrix values="0 0 0 0 0 0 0 0 0 0 0 0 0 0 0 0 0 0 0.588 0"/><feBlend in2="BackgroundImageFix" result="effect1_dropShadow_2682_723"/><feBlend in="SourceGraphic" in2="effect1_dropShadow_2682_723" result="shape"/></filter></defs></svg>