<svg xmlns="http://www.w3.org/2000/svg" width="27" height="24" fill="none"><path fill="#E2425C" d="M13.411 0C6.394 0 .705 5.373.705 12s5.689 12 12.706 12 12.706-5.373 12.706-12C26.109 5.376 20.425.007 13.41 0m4.235 14.587A.96.96 0 0 1 17.708 16a1.103 1.103 0 0 1-1.558 0l-2.739-2.586L10.673 16c-.42.384-1.091.373-1.497-.025a.96.96 0 0 1 0-1.389L11.914 12 9.176 9.414A.96.96 0 0 1 9.202 8a1.104 1.104 0 0 1 1.47 0l2.739 2.586L16.151 8a1.103 1.103 0 0 1 1.495-.059.96.96 0 0 1 0 1.472L14.908 12z"/></svg>